<svg width="313" height="326" viewBox="0 0 313 326" fill="none" xmlns="http://www.w3.org/2000/svg">
<path d="M183.575 52.2946C180.009 50.7913 175.912 50.5029 172.786 48.0541C170.3 46.0969 168.652 43.324 167.007 40.6781C163.897 35.6576 160.35 31.0178 153.839 31.1268C146.78 31.2387 139.611 35.6398 133.083 31.0554C128.401 27.7564 125.731 22.3554 121.05 19.0573C115.307 15.0338 109.309 17.4985 103.548 20.0721C99.799 21.739 95.977 23.1165 91.808 22.3197C87.773 21.3723 84.075 19.3546 81.109 16.4837C76.373 12.2055 72.275 5.44687 65.3633 4.61343C61.6343 4.1655 58.2861 5.91957 54.8113 6.96508C50.0382 8.42087 45.6674 7.16428 41.2784 5.17335C35.4815 2.56403 28.0744 -1.44141 21.7837 2.18349C20.5332 2.90989 19.4789 3.92567 18.7114 5.14362C17.9439 6.36255 17.4859 7.74698 17.3767 9.17899C17.1021 12.4037 18.8027 15.0507 20.8322 17.4241C21.997 18.6698 23.0784 19.9899 24.0697 21.3753C25.3331 23.4395 26.0339 25.7932 26.1037 28.2063C26.3602 31.7402 26.1037 35.3465 27.4597 38.699C28.4654 41.1815 30.3129 43.4846 33.0735 44.1C36.5121 44.8611 39.6207 42.7404 42.8582 41.9793C50.4292 40.1875 53.6847 49.1928 58.8601 52.7634C61.7393 54.7246 65.1495 55.779 68.6437 55.7869C72.63 55.8058 76.05 53.6305 79.944 53.3768C83.912 53.1221 86.967 55.8771 89.71 58.3239C92.121 60.7271 94.994 62.6248 98.159 63.9062C101.502 65.0994 105.1 65.4116 108.6 64.812C112.368 64.1599 115.331 61.732 118.989 60.8797C125.682 59.303 131.68 64.921 137.806 66.5155C140.538 67.3034 143.466 67.0715 146.036 65.8644C149.712 64.0876 152.711 60.3178 157.027 60.1186C160.886 59.9363 162.733 63.49 164.836 66.0636C165.648 67.2112 166.753 68.1249 168.038 68.7106C169.323 69.2973 170.743 69.5331 172.151 69.3974C174.09 69.217 175.954 68.5639 177.914 68.4916C180.2 68.4004 184.021 70.0495 182.412 72.9858C182.211 73.3673 182.559 73.9649 183.035 73.7836C185.545 72.8074 188.219 72.3099 190.916 72.3149C191.037 72.3159 191.154 72.2772 191.249 72.2049C191.345 72.1326 191.414 72.0315 191.446 71.9165C191.774 70.5083 191.939 69.0664 191.94 67.6215C191.94 67.6027 191.94 67.6027 191.958 67.5848C192.466 64.476 191.919 61.288 190.402 58.5211C188.884 55.7542 186.483 53.5641 183.575 52.2946Z" fill="#2C2B47"/>
<path d="M187.744 68.9683C187.687 68.9415 187.625 68.9266 187.561 68.9266C187.498 68.9266 187.435 68.9415 187.378 68.9683C182.77 68.0982 180.996 73.7162 181.163 77.3056C181.346 81.4004 183.762 86.0225 187.691 87.7438C192.703 89.9181 194.422 83.0504 194.495 79.4798C194.603 77.2521 194.012 75.0451 192.803 73.1622C191.594 71.2803 189.827 69.8156 187.744 68.9683Z" fill="#FEDFFD"/>
<path d="M199.065 73.3723C191.456 75.1848 183.855 76.9964 176.26 78.809C176.168 78.8347 176.085 78.8843 176.018 78.9517C175.951 79.019 175.903 79.1033 175.879 79.1944C175.854 79.2866 175.855 79.3827 175.88 79.4739C175.905 79.5651 175.954 79.6483 176.022 79.7157C176.799 80.5155 177.739 81.1428 178.78 81.555C179.82 81.9673 180.938 82.1556 182.057 82.107C184.471 81.8176 185.769 79.6245 186.702 77.6495C186.737 77.5761 186.756 77.4959 186.757 77.4136C187.653 77.1956 188.565 76.9786 189.463 76.7615C189.481 76.7794 189.481 76.7972 189.501 76.816C190.322 77.6554 191.361 78.253 192.503 78.5434C193.646 78.8347 194.847 78.807 195.974 78.4641C198.095 77.7575 198.846 76.055 199.668 74.1701C199.725 74.0779 199.752 73.9718 199.747 73.8648C199.742 73.7578 199.704 73.6547 199.639 73.5685C199.574 73.4823 199.485 73.4179 199.382 73.3832C199.28 73.3485 199.169 73.3445 199.065 73.3723Z" fill="#2C2B47"/>
<path d="M293.777 324.795C292.222 304.806 286.754 285.033 280.939 265.892C280.609 264.821 280.28 263.734 279.951 262.665C279.786 262.14 279.695 261.143 279.273 260.745C279.109 260.63 278.922 260.549 278.724 260.51C277.968 260.344 277.194 260.269 276.42 260.286C272.963 260.069 269.508 259.96 266.051 259.851C253.213 259.434 240.357 259.162 227.501 258.872C210.511 258.491 193.516 258.104 176.515 257.712C160.184 257.314 143.858 256.914 127.54 256.352C125.766 256.299 124.01 256.227 122.237 256.172C122.118 256.174 122.002 256.214 121.906 256.286C121.811 256.357 121.741 256.457 121.706 256.571C114.83 274.856 105.503 292.128 99.049 310.577C97.366 315.169 96.044 319.884 95.094 324.677C95.074 324.757 95.073 324.842 95.091 324.923C95.108 325.003 95.143 325.08 95.194 325.146C95.245 325.211 95.31 325.266 95.384 325.303C95.458 325.341 95.54 325.363 95.624 325.366H285.199C287.752 325.493 290.309 325.493 292.862 325.366C292.977 325.357 293.094 325.357 293.21 325.366C293.298 325.369 293.386 325.351 293.465 325.312C293.563 325.266 293.645 325.193 293.7 325.1C293.756 325.008 293.783 324.902 293.777 324.795Z" fill="#2C2B47"/>
<path d="M310.674 179.375C309.284 166.398 306.358 153.441 300.122 141.842C294.506 131.063 285.726 122.223 274.94 116.487C262.98 110.289 249.393 107.462 236.294 104.635C207.179 98.3635 177.554 94.7027 147.872 92.2381C119.526 89.8864 90.559 87.7072 62.3778 92.7276C40.3043 96.647 13.4577 105.649 4.02225 127.959C-0.67855 139.069 0.364448 151.682 4.66185 162.737C9.23385 174.495 17.4636 184.34 26.7533 192.749C36.3357 201.43 46.9804 209.061 57.5504 216.472C68.3216 224.012 79.6229 231.007 91.9309 235.828C97.2889 237.932 107.823 240.468 108.353 240.667C108.902 240.015 115.741 226.781 119.143 219.95C116.203 234.11 114.145 248.436 112.98 262.847C112.961 263.064 172.69 271.148 202.589 271.728C217.512 272.017 232.428 271.757 247.337 270.944C251.029 270.745 254.723 270.509 258.419 270.237C260.321 270.093 262.242 269.839 264.126 269.789C264.461 269.743 264.802 269.774 265.122 269.881C265.443 269.988 265.734 270.167 265.972 270.405C266.521 270.853 266.996 271.384 267.563 271.818C271.249 274.538 275.775 275.903 280.365 275.679C284.87 275.616 289.272 274.331 293.093 271.964C297.354 269.21 300.133 264.86 302.072 260.292C304.355 254.625 306.231 248.805 307.686 242.877C309.443 236.135 310.63 229.26 311.234 222.324C312.475 208.024 312.287 193.638 310.674 179.375Z" fill="#FFC200"/>
<path d="M299.921 231.913C298.367 219.082 296.702 206.269 292.953 193.856C289.503 182.418 284.663 171.44 278.54 161.16C275.091 155.391 271.254 149.856 267.056 144.596C265.739 142.947 263.416 145.268 264.714 146.917C279.274 165.286 289.132 186.875 293.445 209.841C294.835 217.161 295.731 224.556 296.627 231.95C296.867 233.979 300.159 234.016 299.921 231.913Z" fill="#FEDFFD"/>
<path d="M246.155 226.024C241.583 209.496 238.091 192.532 237.651 175.334C237.349 165.847 238.172 156.358 240.102 147.061C242.535 147.079 244.961 147.079 247.38 147.097C247.809 147.086 248.217 146.909 248.516 146.605C248.816 146.3 248.984 145.891 248.984 145.466C248.984 145.041 248.816 144.632 248.516 144.327C248.217 144.023 247.809 143.846 247.38 143.835C244.692 143.817 242.004 143.799 239.315 143.799C239.017 143.784 238.721 143.859 238.466 144.015C238.212 144.171 238.011 144.399 237.889 144.669C237.665 144.759 237.469 144.905 237.318 145.092C237.167 145.28 237.068 145.502 237.029 145.738C233.281 163.063 233.811 180.879 236.609 198.296C238.059 207.029 239.952 215.684 242.278 224.23C244.202 231.864 246.646 239.36 249.594 246.666C252.794 254.718 257.448 262.125 263.328 268.523C264.79 270.063 267.113 267.739 265.668 266.203C255.116 255.147 250.124 240.414 246.155 226.024Z" fill="#FEDFFD"/>
<path d="M125.823 209.043C125.776 208.866 125.709 208.695 125.622 208.534C111.759 185.514 94.133 164.936 73.464 147.641C67.723 142.838 61.7555 138.307 55.5616 134.049C53.8237 132.835 52.1592 135.681 53.8971 136.876C75.656 151.914 94.751 170.421 110.406 191.644C114.813 197.624 118.934 203.81 122.768 210.202C122.805 210.275 122.86 210.329 122.896 210.401C121.54 213.501 120.335 216.69 118.764 219.696C117.794 221.562 120.628 223.211 121.616 221.344C123.372 218.01 124.652 214.458 126.206 211.015C126.357 210.688 126.402 210.321 126.333 209.968C126.264 209.615 126.086 209.292 125.823 209.043Z" fill="#FEDFFD"/>
<path d="M141.952 253.915C140.414 244.589 138.35 235.355 135.771 226.256C134.838 222.957 133.705 219.477 131.071 217.249C128.766 215.291 124.414 214.512 122.348 212.322C112.71 231.912 100.036 248.84 95.2279 264.915C93.9169 268.944 93.1779 273.134 93.0339 277.366C92.9549 278.584 93.1739 279.801 93.6719 280.918C93.9279 281.472 94.3399 281.94 94.8599 282.265C95.3789 282.59 95.9829 282.759 96.5979 282.75C96.9339 282.707 97.2549 282.588 97.5369 282.403C97.8199 282.218 98.0549 281.97 98.2249 281.679C98.0739 284.357 98.3769 287.041 99.1209 289.618C99.1989 290.081 99.3699 290.523 99.6249 290.919C99.8789 291.314 100.212 291.655 100.602 291.919C101.109 292.129 101.67 292.175 102.205 292.051C102.74 291.927 103.222 291.641 103.583 291.231C104.29 290.395 104.808 289.418 105.101 288.368C104.486 291.062 104.399 293.85 104.845 296.577C104.898 297.355 105.112 298.114 105.474 298.806C105.835 299.499 106.338 300.109 106.948 300.601C107.794 301.022 108.756 301.154 109.686 300.976C110.615 300.8 111.46 300.323 112.088 299.622C113.317 298.186 114.126 296.442 114.428 294.582C114.74 292.737 115.311 290.943 116.123 289.255C116.159 290.999 116.604 292.711 117.421 294.256C117.843 295.024 118.511 295.63 119.319 295.978C120.128 296.325 121.03 296.396 121.884 296.177C123.31 295.652 124.078 294.148 124.681 292.771C130.106 280.163 132.461 266.469 131.558 252.793C132.213 258.652 133.438 264.437 135.215 270.064C135.78 271.695 136.953 273.598 138.654 273.311C139.165 273.152 139.632 272.88 140.022 272.517C140.411 272.152 140.713 271.705 140.903 271.209C143.58 265.967 142.903 259.714 141.952 253.915Z" fill="#FEDFFD"/>
<path d="M237.853 53.3272H196.834C196.253 53.3292 195.696 53.5591 195.284 53.9664C194.873 54.3737 194.642 54.9257 194.64 55.5025V135.807C194.642 136.383 194.873 136.935 195.284 137.343C195.696 137.75 196.253 137.98 196.834 137.982H237.853C238.435 137.98 238.992 137.75 239.403 137.343C239.814 136.935 240.046 136.383 240.048 135.807V55.5025C240.046 54.9257 239.814 54.3737 239.403 53.9664C238.992 53.5591 238.435 53.3292 237.853 53.3272Z" fill="#5A80F9" stroke="#5A80F9" stroke-width="0.162" stroke-miterlimit="10"/>
<path d="M267.127 110.031C267.035 105.266 266.761 100.136 263.835 96.3497C261.236 92.9595 257.032 91.2381 253.027 89.6792C238.822 84.1375 225.656 76.6882 210.401 77.3769C208.938 77.4502 204.987 77.3412 204.457 80.2954C204.399 81.5272 204.752 82.7442 205.463 83.757C206.67 85.406 208.681 85.8054 210.565 86.1671C215.595 87.1096 220.618 88.058 225.635 89.0123C216.692 89.2481 207.164 89.6475 199.794 94.6858C198.477 95.5916 197.105 96.9136 197.655 98.6052C197.792 99.0056 198.018 99.3703 198.315 99.6745C198.612 99.9778 198.974 100.213 199.373 100.362C200.802 100.857 202.354 100.883 203.798 100.435C210.09 98.7667 216.381 98.514 224.446 96.429C218.557 99.7637 213.473 100.707 208.408 103.697C206.176 105.02 203.012 106.741 201.239 108.624C200.238 109.58 199.523 110.79 199.172 112.123C198.77 113.571 200.654 115.112 202.135 114.878C208.518 113.955 214.748 112.193 220.66 109.638C219.856 110.273 218.996 110.925 217.948 111.669C214.869 113.618 212.548 116.543 211.364 119.969C211.256 120.317 211.222 120.683 211.263 121.045C211.304 121.406 211.42 121.756 211.602 122.072C212.48 123.576 214.217 123.268 215.625 122.869C222.538 120.912 228.921 117.07 235.028 113.336C235.219 119.333 237.261 125.127 240.881 129.937C243.294 132.96 246.53 135.772 246.934 139.596C247.189 141.989 246.275 144.364 246.369 146.755C252.789 146.936 259.202 146.852 265.608 146.501L266.173 146.339C267.058 134.954 267.333 121.471 267.127 110.031Z" fill="#FEDFFD"/>
<path d="M217.352 58.5657C216.943 58.5657 216.543 58.6866 216.203 58.9115C215.863 59.1365 215.598 59.4566 215.442 59.8302C215.286 60.2048 215.245 60.617 215.325 61.0144C215.404 61.4118 215.601 61.7765 215.891 62.0629C216.18 62.3493 216.548 62.5446 216.949 62.6228C217.35 62.7021 217.766 62.6615 218.143 62.5059C218.521 62.3513 218.844 62.0887 219.071 61.7517C219.298 61.4148 219.419 61.0184 219.418 60.6131C219.419 60.3445 219.365 60.0779 219.262 59.8292C219.158 59.5805 219.006 59.3545 218.814 59.1642C218.622 58.974 218.394 58.8233 218.143 58.7213C217.892 58.6182 217.623 58.5657 217.352 58.5657Z" fill="#FEDFFD"/>
<path d="M233.007 101.245C228.313 103.218 223.879 105.75 219.803 108.785C218.687 109.618 219.785 111.503 220.918 110.67C225.003 107.649 229.436 105.118 234.122 103.13C235.42 102.587 234.305 100.702 233.007 101.245Z" fill="#2C2B47"/>
<path d="M232.476 92.9446C229.186 93.343 225.996 94.3251 223.058 95.8453C221.796 96.4974 222.911 98.3822 224.173 97.7302C226.765 96.3834 229.575 95.4994 232.476 95.1199C233.865 94.9574 233.885 92.7861 232.476 92.9446Z" fill="#2C2B47"/>
<path d="M231.159 88.9786C229.245 88.1353 227.162 87.7389 225.07 87.8182C223.662 87.8915 223.643 90.0658 225.07 89.9934C226.777 89.9022 228.483 90.1936 230.062 90.8457C231.342 91.4056 232.457 89.5385 231.159 88.9786Z" fill="#2C2B47"/>
<path d="M110.114 264.772C106.874 272.574 104.739 280.783 103.767 289.164C103.602 290.56 105.801 290.542 105.962 289.164C106.94 280.982 109.045 272.97 112.216 265.352C112.769 264.064 110.643 263.502 110.114 264.772Z" fill="#2C2B47"/>
<path d="M118.965 265.479C116.295 274.542 114.904 283.928 114.831 293.369C114.831 293.658 114.947 293.935 115.153 294.138C115.358 294.343 115.637 294.457 115.928 294.457C116.219 294.457 116.499 294.343 116.704 294.138C116.91 293.935 117.026 293.658 117.026 293.369C117.095 284.124 118.455 274.934 121.068 266.058C121.14 265.784 121.101 265.491 120.958 265.246C120.815 265 120.58 264.819 120.304 264.743C120.028 264.667 119.733 264.702 119.483 264.838C119.232 264.976 119.046 265.206 118.965 265.479Z" fill="#2C2B47"/>
<path d="M104.865 258.048C101.167 265.305 98.608 273.079 97.276 281.1C97.056 282.477 99.177 283.057 99.397 281.679C100.678 273.843 103.164 266.246 106.766 259.153C107.407 257.902 105.504 256.797 104.865 258.048Z" fill="#2C2B47"/>
<path d="M283.901 80.0199C282.289 79.5076 280.83 78.6068 279.656 77.3987C278.481 76.1907 277.628 74.7131 277.172 73.0968C277.13 72.9679 277.042 72.8589 276.925 72.7896C276.807 72.7212 276.667 72.6984 276.533 72.7251C276.399 72.7519 276.28 72.8272 276.199 72.9362C276.117 73.0452 276.08 73.18 276.092 73.3148C276.009 73.3752 275.945 73.4595 275.909 73.5566C275.873 73.6537 275.867 73.7588 275.891 73.8589C276.312 75.6159 276.75 77.5375 276.037 79.2777C275.237 80.8018 273.942 82.0158 272.361 82.7214C272.25 82.7898 272.168 82.8958 272.128 83.0197C272.088 83.1436 272.094 83.2774 272.145 83.3963C272.196 83.5162 272.288 83.6143 272.404 83.6728C272.521 83.7322 272.655 83.7481 272.783 83.7174C276.64 82.5401 278.743 88.1392 280.207 90.6762C280.275 90.7882 280.382 90.8714 280.507 90.9111C280.633 90.9517 280.768 90.9458 280.89 90.8952C281.011 90.8457 281.111 90.7535 281.17 90.6366C281.229 90.5206 281.244 90.3868 281.212 90.26C280.637 88.6446 280.419 86.9262 280.573 85.2207C280.902 83.1901 282.329 82.0118 284.03 81.0159C284.12 80.9594 284.192 80.8791 284.238 80.784C284.284 80.6879 284.301 80.5818 284.287 80.4768C284.274 80.3717 284.23 80.2736 284.162 80.1924C284.093 80.1111 284.003 80.0517 283.901 80.0199Z" fill="#BBE7FF"/>
<path d="M194.877 21.7568C194.396 21.0086 194.108 20.1543 194.038 19.2694C193.968 18.3854 194.118 17.4975 194.475 16.6828C194.694 16.1566 194.053 15.8861 193.651 16.1229C193.559 16.1229 193.47 16.1477 193.392 16.1963C193.314 16.2448 193.252 16.3132 193.213 16.3955C192.936 17.0535 192.539 17.656 192.042 18.1713C191.626 18.5331 191.125 18.7858 190.585 18.9067C190.045 19.0266 189.483 19.0107 188.951 18.8601C188.403 18.7877 187.909 19.5667 188.531 19.857C190.397 20.7271 189.427 23.5 189.171 25.0212C189.079 25.5811 189.903 26.0548 190.176 25.4394C191.036 23.5535 192.06 22.3038 194.401 22.5932C194.822 22.6269 195.059 22.0838 194.877 21.7568Z" fill="#BBE7FF"/>
<path d="M260.475 11.2819C259.176 10.4227 258.112 9.25823 257.378 7.89262C256.644 6.52603 256.263 5.00087 256.269 3.45391C256.266 3.31913 256.213 3.1913 256.121 3.0922C256.029 2.99409 255.905 2.93264 255.77 2.91877C255.635 2.90489 255.5 2.94058 255.39 3.01787C255.28 3.09616 255.202 3.21112 255.172 3.34193C255.079 3.38058 254.999 3.44599 254.944 3.53022C254.888 3.61347 254.859 3.71157 254.86 3.81166C254.929 5.36259 254.595 6.90459 253.891 8.29101C252.922 9.84986 251.13 10.3384 249.465 10.7913C249.34 10.829 249.232 10.9102 249.161 11.0192C249.09 11.1292 249.061 11.2601 249.078 11.3889C249.096 11.5177 249.159 11.6356 249.257 11.7219C249.355 11.8091 249.481 11.8586 249.612 11.8616C253.306 11.8249 253.744 17.2071 254.421 19.8897C254.459 20.0136 254.541 20.1206 254.651 20.191C254.761 20.2613 254.893 20.2901 255.023 20.2732C255.153 20.2554 255.272 20.193 255.36 20.0958C255.447 19.9987 255.497 19.8749 255.5 19.745C255.432 18.319 255.605 16.8909 256.012 15.5224C256.725 13.582 258.426 12.7495 260.328 12.2421C260.43 12.2174 260.522 12.1629 260.592 12.0866C260.663 12.0093 260.709 11.9131 260.725 11.8111C260.741 11.708 260.725 11.6029 260.681 11.5088C260.636 11.4147 260.564 11.3364 260.475 11.2819Z" fill="#BBE7FF"/>
<path d="M212.435 78.1747C211.795 76.7437 209.691 76.6881 208.01 76.9963C207.462 76.9983 206.917 77.0895 206.4 77.2689C206.235 77.3145 206.083 77.3977 205.956 77.5117C205.829 77.6256 205.73 77.7674 205.668 77.9259C205.606 78.0845 205.582 78.2549 205.598 78.4234C205.614 78.5929 205.67 78.7554 205.76 78.9001C206.455 79.6919 207.417 80.2072 208.466 80.3489C209.723 80.5858 213.384 80.3132 212.435 78.1747Z" fill="#FB0E39"/>
<path d="M203.637 94.0873C202.338 93.1092 200.36 94.1785 199.009 95.3013C198.591 95.5272 198.214 95.8215 197.894 96.1714C197.771 96.2903 197.678 96.437 197.622 96.5985C197.566 96.759 197.548 96.9315 197.571 97.1009C197.595 97.2694 197.657 97.4309 197.754 97.5717C197.852 97.7124 197.981 97.8293 198.131 97.9116C199.137 98.2802 200.245 98.2664 201.241 97.8749C202.466 97.4765 205.521 95.5005 203.637 94.0873Z" fill="#FB0E39"/>
<path d="M205.3 108.73C203.765 107.879 201.972 109.039 200.82 110.362C200.435 110.621 200.106 110.954 199.851 111.341C198.495 113.715 202.558 113.66 203.806 113.132C205.337 112.495 207.532 109.963 205.3 108.73Z" fill="#FB0E39"/>
<path d="M215.798 116.813C214.207 116.365 212.781 117.756 211.975 119.206C211.63 119.539 211.384 119.958 211.262 120.42C210.768 122.848 214.462 121.979 215.523 121.218C216.859 120.222 218.12 117.484 215.798 116.813Z" fill="#FB0E39"/>
<path d="M142.19 267.671C142.044 266.311 140.947 265.242 139.519 265.841C139.473 265.858 139.43 265.882 139.392 265.913C139.186 265.947 138.993 266.039 138.838 266.178C138.683 266.317 138.57 266.496 138.514 266.696C137.892 267.818 137.661 269.112 137.856 270.376C137.901 270.747 138.023 271.104 138.215 271.426C138.408 271.747 138.665 272.025 138.971 272.242C139.052 272.401 139.167 272.54 139.308 272.649C139.45 272.758 139.614 272.835 139.79 272.873C139.965 272.911 140.147 272.91 140.321 272.87C140.496 272.83 140.66 272.751 140.8 272.64C142.116 271.821 142.337 269.012 142.19 267.671Z" fill="#FB0E39"/>
<path d="M120.34 289.02C120.11 288.967 119.871 288.966 119.64 289.016C119.409 289.066 119.192 289.166 119.005 289.31C118.938 289.286 118.867 289.276 118.796 289.282C118.725 289.287 118.655 289.308 118.593 289.343C118.531 289.377 118.476 289.424 118.434 289.481C118.391 289.538 118.362 289.603 118.347 289.672C117.813 291.59 118.014 293.637 118.912 295.417C119.552 296.486 120.869 297.266 122.02 296.396C124.182 294.819 123.025 289.473 120.34 289.02Z" fill="#FB0E39"/>
<path d="M109.821 293.695C109.577 293.481 109.284 293.328 108.968 293.25C108.651 293.172 108.32 293.172 108.003 293.249C107.686 293.327 107.393 293.478 107.149 293.693C106.905 293.907 106.717 294.177 106.601 294.479C106.268 295.272 106.121 296.129 106.172 296.986C106.223 297.844 106.47 298.678 106.894 299.427C107.011 299.653 107.152 299.866 107.316 300.062C107.955 301.181 109.199 302.038 110.442 301.13C112.875 299.387 111.997 295.2 109.821 293.695Z" fill="#FB0E39"/>
<path d="M102.945 287.335C102.744 285.921 101.499 283.166 99.58 284.108C99.163 284.354 98.827 284.714 98.613 285.145C98.399 285.576 98.315 286.06 98.373 286.536C98.226 288.422 98.391 291.067 100.407 291.775C102.726 292.573 103.146 288.748 102.945 287.335Z" fill="#FB0E39"/>
<path d="M96.708 276.026C96.58 275.722 96.377 275.455 96.118 275.249C95.859 275.042 95.553 274.903 95.226 274.843C94.899 274.784 94.562 274.807 94.247 274.908C93.931 275.01 93.645 275.189 93.417 275.428C93.209 275.66 93.065 275.94 92.996 276.243C92.674 277.179 92.556 278.172 92.651 279.157C92.745 280.141 93.05 281.095 93.544 281.954C94.478 283.385 95.94 282.824 96.581 281.464C96.977 280.615 97.192 279.694 97.214 278.758C97.236 277.822 97.064 276.893 96.708 276.026Z" fill="#FB0E39"/>
</svg>
