<svg width="279" height="248" viewBox="0 0 279 248" fill="none" xmlns="http://www.w3.org/2000/svg">
<path d="M115.268 2.341C46.221 10.104 7.10028 49.566 34.3867 127.708C61.673 205.849 124.99 169.401 198.672 156.996C272.354 144.59 295.513 91.28 265.23 46.984C236.854 5.47699 184.316 -5.422 115.268 2.341Z" fill="url(#paint0_linear_1_61)"/>
<path d="M1.32993 222.999C-1.88037 236.975 18.2576 247.11 31.712 247.274C45.1663 247.437 49.985 235.19 52.2788 219.896C54.572 204.602 41.721 195.248 27.2103 196.989C13.6133 198.619 4.54033 209.022 1.32993 222.999Z" fill="url(#paint1_linear_1_61)"/>
<path d="M120.262 54.989L113.775 50.451L106.646 47.898L100.66 46.94L96.372 46.448C102.285 46.333 108.192 47.584 113.499 50.261C116.007 51.526 118.262 53.129 120.262 54.989ZM139.599 60.749C143.469 69.082 145.283 78.393 144.684 87.567C144 98.04 140.191 108.385 135.298 117.568C132.052 123.659 128.193 129.316 123.999 134.731L113.585 147.192C107.994 153.524 102.23 159.717 96.805 166.123C96.786 166.101 96.769 166.08 96.751 166.06C96.507 165.772 96.265 165.484 96.02 165.198C93.61 162.373 91.144 159.588 88.664 156.813C88.642 156.772 88.609 156.735 88.567 156.705C83.16 150.658 77.687 144.654 72.57 138.38L62.576 124.815C61.341 122.911 60.154 120.971 59.029 118.982C53.837 109.796 50.0536 99.495 48.9006 88.959C47.8843 79.672 49.692 70.151 53.369 61.617C60.738 44.517 76.937 30.978 96.114 31.729C96.161 31.731 96.208 31.731 96.255 31.733C96.314 31.743 96.379 31.748 96.459 31.744C96.481 31.743 96.503 31.743 96.525 31.742C96.532 31.742 96.538 31.742 96.545 31.742C96.596 31.745 96.647 31.744 96.698 31.747C96.75 31.75 96.804 31.743 96.859 31.731C103.559 31.437 109.873 32.874 115.583 35.588C118.441 37.106 121.244 38.839 123.834 40.684C130.534 45.877 135.965 52.922 139.599 60.749ZM127.307 61.9C121.19 51.075 109.163 45.668 97.141 45.741C96.569 45.745 95.998 45.756 95.427 45.784C94.966 45.807 94.506 45.84 94.046 45.879L94.027 45.84C93.333 45.875 92.564 45.925 91.762 45.994C81.069 46.28 71.706 51.76 66.303 61.162C60.811 70.72 59.889 82.765 62.905 93.273C66.077 104.325 74.174 113.158 85.244 116.454C89.022 117.579 93.01 118.029 96.998 117.965C97.416 117.959 97.834 117.948 98.251 117.931C101.593 117.788 104.918 117.296 108.103 116.538C109.703 116.157 111.268 115.663 112.788 115.069C114.25 114.636 115.463 114.146 116.199 113.593C116.311 113.509 116.429 113.418 116.55 113.323C120.489 111.185 123.958 108.246 126.613 104.51C135.034 92.658 134.241 74.171 127.307 61.9ZM120.184 110.076C122.3 108.356 124.097 106.362 125.588 104.167C123.914 106.248 121.971 108.332 120.184 110.076ZM129.743 71.046L131.032 77.265C130.746 75.145 130.311 73.061 129.743 71.046ZM85.782 115.715C82.374 114.38 78.695 112.481 75.662 110.533C78.699 112.87 82.135 114.607 85.782 115.715ZM49.8982 100.393C49.1328 97.703 48.5195 94.97 48.0938 92.213C48.2897 94.714 48.9708 97.537 49.8982 100.393ZM225.55 49.345C224.745 58.072 220.978 65.595 216.048 72.503L203.023 87.799L198.075 93.36C198.057 93.338 198.04 93.318 198.022 93.298C197.986 93.255 197.949 93.212 197.913 93.17C192.538 86.875 186.656 80.766 181.71 74.122L181.573 73.939C176.371 66.914 172.231 59.283 170.861 50.193C168.472 34.336 180.552 15.889 197.463 16.302C197.576 16.304 197.689 16.308 197.802 16.312C197.836 16.316 197.876 16.317 197.916 16.316C197.918 16.316 197.919 16.316 197.921 16.316C197.959 16.318 197.996 16.318 198.033 16.32C198.075 16.322 198.116 16.317 198.16 16.31C215.219 15.615 227.01 33.522 225.55 49.345ZM218.211 38.612C216.193 30.165 209.399 24.162 200.612 24.24C199.83 24.154 199.045 24.11 198.261 24.102C197.649 24.096 197.039 24.118 196.429 24.159C195.999 24.188 195.572 24.229 195.146 24.282C194.011 24.378 192.761 24.542 191.756 24.825C191.037 25.026 189.994 25.442 188.822 26.035C186.517 27.076 184.4 28.534 182.622 30.429C177.313 36.086 176.1 45.184 177.93 52.517C180.068 61.083 188.071 65.754 196.39 66.214C196.945 66.261 197.473 66.3 197.901 66.329C197.901 66.329 198.052 66.299 198.316 66.245C203.245 66.132 208.135 64.539 211.837 61.397C214.149 59.435 215.865 56.953 217.03 54.21L217.032 54.207C219.094 49.35 219.419 43.674 218.211 38.612Z" fill="#2A2A2B"/>
<path fill-rule="evenodd" clip-rule="evenodd" d="M127.308 61.9C134.241 74.171 135.035 92.658 126.613 104.509C123.958 108.245 120.488 111.184 116.551 113.323C115.338 113.982 114.081 114.564 112.789 115.069C111.269 115.664 109.704 116.158 108.103 116.538C104.919 117.296 101.593 117.789 98.251 117.931C97.834 117.949 97.417 117.959 96.999 117.966C93.011 118.029 89.022 117.579 85.244 116.454C74.175 113.158 66.077 104.325 62.905 93.274C59.889 82.765 60.812 70.721 66.304 61.162C71.706 51.76 81.07 46.28 91.763 45.994C92.171 45.983 92.581 45.978 92.994 45.982C93.345 45.943 93.695 45.909 94.048 45.879C94.507 45.84 94.967 45.808 95.428 45.785C95.998 45.757 96.57 45.745 97.141 45.742C109.164 45.668 121.191 51.075 127.308 61.9ZM85.782 115.715C87.593 116.264 89.454 116.662 91.344 116.9C100.232 118.02 110.403 116.685 118.005 111.682C118.768 111.18 119.49 110.641 120.183 110.077C122.3 108.357 124.097 106.363 125.588 104.168C130.75 96.574 132.296 86.588 131.032 77.266C130.746 75.146 130.311 73.062 129.743 71.047C129.504 70.201 129.246 69.366 128.961 68.548C127.15 63.351 124.21 58.661 120.261 54.99C118.261 53.131 116.006 51.528 113.498 50.263C108.191 47.585 102.284 46.334 96.371 46.449C95.17 46.472 93.968 46.548 92.771 46.684C92.717 46.69 92.672 46.69 92.629 46.69C92.627 46.69 92.623 46.69 92.62 46.69H92.608C84.065 46.583 75.954 49.966 70.515 56.682C65.529 62.837 62.912 70.708 62.494 78.584C61.894 89.896 65.616 101.968 74.389 109.505C74.804 109.861 75.23 110.201 75.662 110.533C78.699 112.871 82.135 114.607 85.782 115.715ZM128.594 85.207C128.252 92.176 126.174 99.279 121.362 104.494C120.115 105.845 118.739 107.022 117.273 108.055C117.272 108.063 117.272 108.071 117.272 108.078C117.272 108.082 117.272 108.085 117.272 108.088C117.262 108.322 116.914 108.496 116.595 108.527C111.54 111.864 105.436 113.481 99.361 113.847C87.047 114.588 75.264 109.837 69.281 98.543C64.139 88.838 63.711 76.508 68.153 66.454C72.705 56.151 82.155 49.828 93.425 49.929C101.892 48.984 110.991 50.999 117.626 56.552C125.925 63.497 129.111 74.649 128.594 85.207ZM103.273 112.726C107.895 112.003 112.323 110.426 116.075 107.895C116.187 103.042 114.519 97.015 109.898 94.617C107.686 93.47 105.256 93.245 102.819 93.021C101.056 92.858 99.29 92.695 97.601 92.181C96.401 96.558 88.476 97.363 87.061 92.891C85.78 94.768 83.647 95.772 81.538 96.765C78.536 98.178 75.581 99.57 75.196 103.426C75.165 103.736 74.807 103.92 74.488 103.93C76.492 106.181 78.843 108.113 81.51 109.57C88.133 113.188 95.899 113.88 103.273 112.726ZM90.74 76.928C89.703 76.397 88.773 76.983 88.275 77.966C87.717 79.064 87.511 80.575 88.211 81.668C88.594 82.266 89.131 82.709 89.742 82.973C90.018 82.926 90.286 82.974 90.317 83.162C90.988 83.318 91.713 83.269 92.399 82.98C92.665 82.869 93.806 82.801 93.081 83.105C92.227 83.464 91.197 83.735 90.202 83.726C89.855 85.03 89.091 86.058 87.901 86.695C87.892 86.703 87.883 86.711 87.874 86.718C87.868 86.723 87.863 86.728 87.857 86.733C87.878 87.593 87.929 88.452 87.98 89.311C88.033 90.198 88.086 91.086 88.106 91.975C88.108 91.98 88.113 91.983 88.113 91.989C88.881 96.419 96.076 96.482 96.538 91.8C96.491 91.781 96.444 91.763 96.397 91.744C96.304 91.707 96.211 91.67 96.119 91.628C95.847 91.503 96.004 91.298 96.272 91.152C96.272 91.147 96.271 91.142 96.27 91.138C96.268 91.131 96.267 91.125 96.267 91.117C96.252 88.673 99.293 87.416 101.764 86.395C102.651 86.028 103.465 85.692 104.038 85.342C108.975 82.325 108.304 75.094 107.672 69.891C105.191 73.23 99.297 73.168 96.41 70.181C96.418 70.359 96.427 70.537 96.436 70.715C96.609 74.255 96.783 77.799 92.983 79.431C92.715 79.661 91.861 79.744 91.866 79.616C91.904 78.637 91.713 77.425 90.74 76.928ZM88.546 76.662C88.546 76.662 88.404 76.761 88.221 76.981C88.524 76.77 88.852 76.601 89.197 76.476C88.818 76.561 88.546 76.662 88.546 76.662ZM112.415 95.133C115.82 98.192 117.248 102.555 117.286 107.025C120.017 104.94 122.329 102.301 123.991 99.036C127.481 92.173 128.116 84.008 126.881 76.479C125.47 67.87 121.324 59.718 113.739 55.04C107.622 51.268 100.331 49.85 93.225 50.654C93.172 50.66 93.13 50.659 93.088 50.659H93.086C93.084 50.659 93.082 50.659 93.08 50.659C93.078 50.659 93.075 50.659 93.073 50.659H93.05C83.387 50.549 74.954 55.599 70.415 64.16C65.145 74.1 64.909 86.912 69.87 97.028C70.984 99.3 72.367 101.443 73.996 103.37C74.346 100.342 76.202 98.338 78.868 96.993C79.444 96.703 80.054 96.432 80.67 96.159C83.136 95.067 85.707 93.927 86.663 91.236C86.7 91.134 86.772 91.052 86.864 90.991C86.839 90.492 86.809 89.994 86.779 89.496C86.737 88.807 86.695 88.118 86.668 87.429C85.376 86.882 84.359 84.611 83.67 83.073C83.521 82.741 83.388 82.444 83.271 82.205C82.104 79.833 80.907 77.379 80.173 74.829C78.887 70.364 82.395 64.505 87.203 66.143H87.239C87.239 66.143 87.33 65.98 87.492 65.706C87.954 60.251 93.081 60.689 97.842 61.095C100.001 61.28 102.085 61.458 103.624 61.076C103.661 61.067 103.695 61.063 103.729 61.059C104.934 59.806 106.28 58.587 107.886 58.181C110.173 57.604 112.391 58.691 113.644 60.705C116.178 64.779 113.107 68.841 108.782 68.856C108.796 68.968 108.81 69.082 108.825 69.197C109.394 73.76 110.246 80.588 106.873 84.101C105.507 85.524 103.691 86.351 101.923 87.156C101.877 87.177 101.831 87.198 101.784 87.219C101.587 87.31 101.372 87.402 101.148 87.498C99.546 88.187 97.455 89.087 97.466 90.974C97.466 91.039 97.434 91.099 97.385 91.154C99.351 91.977 101.518 92.169 103.679 92.361C106.821 92.64 109.948 92.917 112.415 95.133ZM217.029 54.212C215.865 56.954 214.148 59.436 211.837 61.398C208.134 64.54 203.245 66.133 198.316 66.247C197.673 66.261 197.031 66.251 196.389 66.215C188.07 65.755 180.067 61.084 177.929 52.518C176.1 45.185 177.313 36.087 182.621 30.43C184.4 28.536 186.516 27.077 188.821 26.037C190.817 25.135 192.957 24.554 195.145 24.283C195.571 24.23 195.999 24.189 196.428 24.16C197.038 24.119 197.649 24.096 198.261 24.103C199.045 24.111 199.83 24.155 200.612 24.241C209.398 24.162 216.192 30.166 218.21 38.613C219.419 43.675 219.094 49.35 217.031 54.208C217.031 54.21 217.029 54.212 217.029 54.212ZM179.889 36.888C177.292 44.364 177.57 54.507 183.686 60.282C189.593 65.86 200.143 67.178 207.384 63.503C212.751 60.78 216.191 55.404 217.277 49.554C219.414 38.04 213.113 24.832 200.154 24.949C200.081 24.949 200.025 24.942 199.977 24.932C191.355 24.055 182.839 28.389 179.889 36.888ZM200.349 26.518C214.401 26.409 220.289 43.097 214.408 54.377C211.803 59.376 207.083 62.784 201.502 63.603C194.034 64.7 185.49 62.514 181.607 55.543C178.072 49.196 178.714 39.501 182.976 33.669C186.979 28.194 193.729 25.798 200.349 26.518ZM210.536 58.065C210.567 58.079 210.601 58.091 210.636 58.099C208.935 59.886 206.845 61.231 204.514 62.079C202.457 62.911 200.213 63.368 197.863 63.368C195.13 63.368 192.54 62.749 190.22 61.642C189.533 61.362 188.864 61.039 188.22 60.672C188.27 60.657 188.319 60.638 188.365 60.617C188.087 60.441 187.814 60.257 187.546 60.066C187.544 60.131 187.543 60.196 187.542 60.263C186.867 59.832 186.221 59.352 185.616 58.811C184.277 57.615 183.251 56.166 182.486 54.579C180.836 51.822 179.886 48.586 179.886 45.124C179.886 35.048 187.935 26.88 197.863 26.88C199.29 26.88 200.677 27.048 202.008 27.367C207.456 28.039 211.308 31.487 213.44 36.01C214.967 38.692 215.841 41.804 215.841 45.124C215.841 49.05 214.619 52.686 212.54 55.662C212.214 56.178 211.863 56.669 211.487 57.135C211.482 57.106 211.476 57.077 211.471 57.048C211.172 57.399 210.86 57.738 210.536 58.065ZM198.061 94.71C198.058 94.712 198.056 94.714 198.051 94.717C197.041 95.295 195.963 95.832 194.873 96.376C192.143 97.737 189.334 99.137 187.316 101.316C183.762 105.155 188.18 107.952 191.516 109.68C192.138 110.002 192.787 110.318 193.446 110.639C196.19 111.975 199.11 113.396 201.019 115.713C203.5 118.725 203.112 122.433 201.28 125.719C199.864 128.26 197.153 129.899 194.724 131.332C193.748 131.908 192.746 132.458 191.742 133.008C189.386 134.3 187.016 135.599 184.934 137.273C182.494 139.236 180.468 142.322 182.812 145.266C184.672 147.604 187.799 148.272 190.619 148.874C190.888 148.932 191.154 148.988 191.417 149.046C191.618 149.09 191.823 149.135 192.029 149.179C194.836 149.787 198.076 150.488 200.096 152.629C202.476 155.151 203.541 159.676 200.256 161.868C200.016 162.028 198.806 162.129 199.325 161.783C201.897 160.068 201.421 156.469 199.865 154.165C198.745 152.505 197.047 151.454 195.18 150.803C193.715 150.292 192.181 149.969 190.648 149.646C188.634 149.222 186.619 148.798 184.758 147.947C182.512 146.92 180.244 144.866 180.579 142.114C180.915 139.345 183.511 137.407 185.672 135.99C186.941 135.159 188.445 134.358 190.013 133.522C195.445 130.629 201.66 127.319 201.632 120.861C201.615 116.935 198.58 114.51 195.428 112.739C194.547 112.243 193.534 111.778 192.485 111.297C189.824 110.075 186.938 108.751 185.429 106.567C182.205 101.899 190.422 97.907 195.11 95.629C196.027 95.184 196.808 94.804 197.344 94.498C197.377 94.478 197.422 94.461 197.471 94.447C197.453 94.426 197.435 94.404 197.417 94.383L197.403 94.366C197.177 94.489 196.881 94.594 196.743 94.584C192.14 94.273 187.289 95.329 182.877 96.534C179.14 97.555 175.379 98.823 171.999 100.75C169.571 102.135 166.522 104.14 165.843 107.08C165.176 109.972 167.025 112.664 169.176 114.414C169.464 114.648 169.904 114.923 170.397 115.232C171.747 116.076 173.494 117.169 173.596 118.346C173.76 120.231 170.582 121.523 168.89 122.211C168.676 122.297 168.487 122.374 168.331 122.442C165.406 123.704 162.694 124.726 159.541 125.232C157.003 125.639 154.404 125.899 151.795 126.16C146.517 126.689 141.198 127.222 136.257 128.98C132.931 130.163 129.946 132.412 129.086 136.081C128.4 139.007 130.961 140.109 133.242 141.016C133.401 141.079 133.563 141.142 133.728 141.207C135.686 141.973 138.045 142.895 138.949 144.9C139.772 146.723 139.766 148.673 138.292 150.164C134.681 153.814 128.285 154.63 123.365 155.258C123.183 155.281 123.002 155.304 122.824 155.327C119.778 155.719 116.718 155.913 113.66 156.108C111.198 156.264 108.737 156.421 106.283 156.68C103.247 160.072 100.231 163.475 97.307 166.948C97.276 167.007 97.224 167.064 97.155 167.113C97.099 167.153 97.034 167.189 96.964 167.218C96.937 167.228 96.907 167.236 96.877 167.244C96.612 167.332 96.305 167.339 96.169 167.176C93.449 163.944 90.634 160.759 87.79 157.583C76.668 158.475 65.547 159.367 54.426 160.259L54.416 160.26C53.603 160.325 53.813 159.378 54.508 159.322C60.344 158.854 66.18 158.386 72.017 157.918C77.015 157.517 82.014 157.116 87.013 156.715C86.321 155.943 85.628 155.172 84.934 154.4C72.535 140.604 60.032 126.693 52.9906 109.331C51.8132 106.427 50.7614 103.438 49.896 100.393C49.1314 97.704 48.5173 94.97 48.0917 92.213C47.4953 88.351 47.2684 84.442 47.5461 80.539C48.1784 71.669 50.8866 62.911 55.441 55.271C64.198 40.578 79.411 30.136 96.881 30.973C117.881 29.981 135.459 45.326 142.459 64.443C145.505 72.761 146.815 81.853 145.55 90.668C144.078 100.93 140.368 110.837 135.227 119.805C127.923 132.548 118.163 143.431 108.41 154.306C107.874 154.904 107.337 155.502 106.801 156.101C108.827 155.897 110.862 155.78 112.896 155.664C114.671 155.562 116.447 155.461 118.216 155.301C121.796 154.977 125.403 154.575 128.912 153.776L129.069 153.74C131.739 153.133 135.031 152.384 137.021 150.373C138.66 148.716 138.779 146.101 137.153 144.324C135.928 142.987 134.287 142.342 132.646 141.697C131.87 141.392 131.095 141.087 130.364 140.71C128.439 139.717 127.19 138.189 127.995 135.934C128.993 133.144 130.893 130.791 133.578 129.525C138.93 127.001 145.08 126.37 151.01 125.761C152.353 125.624 153.685 125.487 154.994 125.33C155.52 125.266 156.059 125.209 156.604 125.15C159.306 124.86 162.176 124.551 164.61 123.467C164.773 123.394 165.085 123.279 165.492 123.128C167.856 122.251 173.456 120.173 172.24 118.232C171.558 117.145 170.403 116.375 169.251 115.608C168.369 115.02 167.489 114.434 166.825 113.708C165.216 111.947 163.91 109.424 164.73 106.998C166.59 101.499 174.13 98.779 179.072 97.161C184.734 95.307 191.065 93.68 197.089 93.998C195.155 91.727 193.155 89.506 191.154 87.285C186.814 82.465 182.47 77.643 178.794 72.292C173.679 64.849 169.376 55.881 169.383 46.651C169.392 30.839 181.64 14.82 198.336 15.549C214.923 14.893 227.462 31.189 226.891 47.066C226.305 63.356 215.291 75.687 204.864 87.36C202.764 89.71 200.689 92.034 198.727 94.358C198.696 94.416 198.646 94.472 198.578 94.52C198.522 94.561 198.455 94.597 198.383 94.627C198.282 94.668 198.17 94.698 198.061 94.71ZM96.775 166.088C96.785 166.099 96.794 166.111 96.804 166.122C100.28 162.018 103.895 158.002 107.514 153.98C109.544 151.724 111.576 149.467 113.585 147.192C117.175 143.127 120.691 139.004 124 134.73C128.193 129.315 132.053 123.658 135.298 117.567C140.192 108.384 144 98.039 144.684 87.566C145.283 78.392 143.469 69.081 139.6 60.748C135.965 52.922 130.535 45.877 123.833 40.683C121.261 38.69 118.501 36.975 115.583 35.588C109.872 32.873 103.559 31.436 96.859 31.731C96.804 31.742 96.749 31.75 96.697 31.747C96.672 31.745 96.646 31.745 96.621 31.744C96.595 31.744 96.57 31.743 96.544 31.742C96.537 31.741 96.532 31.741 96.525 31.741C96.514 31.742 96.503 31.742 96.492 31.742C96.481 31.742 96.47 31.743 96.459 31.743C96.379 31.748 96.313 31.742 96.254 31.733C96.227 31.732 96.201 31.731 96.174 31.73C96.154 31.73 96.134 31.729 96.114 31.729C76.936 30.977 60.737 44.516 53.369 61.616C49.6914 70.15 47.8838 79.671 48.9 88.959C50.053 99.495 53.836 109.796 59.029 118.982C60.153 120.971 61.34 122.911 62.576 124.815C65.64 129.538 69.018 134.025 72.569 138.38C76.924 143.719 81.536 148.862 86.146 154.003C86.953 154.903 87.761 155.803 88.566 156.704C88.609 156.735 88.641 156.771 88.663 156.813C91.144 159.588 93.61 162.372 96.019 165.197C96.177 165.382 96.335 165.568 96.492 165.754C96.578 165.856 96.664 165.957 96.75 166.059C96.759 166.069 96.767 166.078 96.775 166.088ZM181.574 73.939L181.711 74.121C185.058 78.618 188.835 82.87 192.592 87.1C194.386 89.12 196.176 91.135 197.913 93.17C197.949 93.213 197.986 93.256 198.023 93.299C198.027 93.304 198.032 93.31 198.037 93.316C198.05 93.33 198.062 93.345 198.075 93.36L198.223 93.534C200.066 91.372 202.001 89.213 203.956 87.032C208.138 82.366 212.408 77.602 216.047 72.503C220.977 65.595 224.745 58.072 225.549 49.345C227.01 33.523 215.218 15.615 198.161 16.31C198.117 16.317 198.075 16.321 198.034 16.319C198.013 16.318 197.992 16.318 197.971 16.317C197.955 16.317 197.938 16.316 197.922 16.316H197.917C197.877 16.316 197.837 16.315 197.802 16.312C197.69 16.307 197.577 16.304 197.464 16.301C180.553 15.889 168.472 34.335 170.862 50.193C172.232 59.283 176.372 66.914 181.574 73.939Z" fill="#2A2A2B"/>
<path d="M225.747 46.666C225.747 46.666 211.958 48.248 203.142 46.666C202.464 48.474 202.916 61.585 214.671 60.907C226.425 60.229 225.747 46.666 225.747 46.666Z" stroke="#2A2A2B" stroke-width="0.904202"/>
<path d="M225.295 50.961C225.596 50.509 227.013 49.113 228.46 48.932C230.268 48.706 230.494 55.035 227.781 56.166C225.611 57.07 224.089 55.864 223.939 54.809" stroke="#2A2A2B" stroke-width="0.904202"/>
<path d="M211.779 36.267C212.005 37.624 209.067 39.884 209.519 41.918C209.88 43.546 210.724 44.706 211.101 45.083" stroke="#2A2A2B" stroke-width="0.904202"/>
<path d="M215.396 40.11C214.944 43.049 216.875 44.706 217.252 45.083" stroke="#2A2A2B" stroke-width="0.904202"/>
<defs>
<linearGradient id="paint0_linear_1_61" x1="348.625" y1="13.927" x2="78.017" y2="185.045" gradientUnits="userSpaceOnUse">
<stop stop-color="#FAC7FF"/>
<stop offset="1" stop-color="#FFD2BE"/>
</linearGradient>
<linearGradient id="paint1_linear_1_61" x1="24.5832" y1="177.929" x2="30.9053" y2="247.447" gradientUnits="userSpaceOnUse">
<stop stop-color="#FAC7FF"/>
<stop offset="1" stop-color="#FFD2BE"/>
</linearGradient>
</defs>
</svg>
