<svg width="276" height="276" viewBox="0 0 276 276" fill="none" xmlns="http://www.w3.org/2000/svg">
<path d="M245.487 193.998C273.288 141.586 214.237 68.147 157.62 51.173C101.003 34.1979 100.643 112.034 48.4608 151.93C3.12606 186.591 46.7183 256.817 109.736 267.402C168.785 277.32 217.686 246.41 245.487 193.998Z" fill="url(#paint0_linear_1_105)"/>
<path d="M50.1808 65.139C60.185 69.858 74.055 59.89 77.632 47.621C81.209 35.3519 72.956 29.3847 61.696 25.3348C50.4359 21.2849 39.8942 31.8288 37.5216 45.306C35.2985 57.935 40.1765 60.42 50.1808 65.139Z" fill="url(#paint1_linear_1_105)"/>
<mask id="mask0_1_105" style="mask-type:luminance" maskUnits="userSpaceOnUse" x="0" y="0" width="276" height="276">
<path d="M275.147 0.173096H0V275.32H275.147V0.173096Z" fill="white"/>
</mask>
<g mask="url(#mask0_1_105)">
<path d="M102.019 169.706C101.775 169.759 101.49 169.831 101.19 169.928C101.387 169.704 101.678 169.646 102.019 169.706ZM87.84 188.696C87.825 188.706 87.8111 188.715 87.7961 188.725C87.7961 188.725 87.799 188.726 87.8 188.728C87.813 188.717 87.827 188.707 87.84 188.696ZM147.838 144.289C147.357 140.971 146.459 137.63 143.777 135.514C136.422 142.454 126.573 134.095 121.535 127.535C120.389 127.641 119.22 127.755 118.039 127.888C116.639 128.054 114.943 128.283 113.149 128.58C110.311 129.088 107.526 129.811 104.989 130.931C103.238 131.704 101.689 132.783 100.296 134.065C100.296 134.072 100.296 134.079 100.296 134.087C100.296 134.296 100.065 134.462 99.795 134.541C98.718 135.599 97.737 136.779 96.832 138.034C94.168 142.694 90.61 149.618 87.61 155.596C87.615 155.618 87.6001 155.645 87.5701 155.676C86.9111 156.99 86.28 158.255 85.692 159.441C83.113 165.215 80.75 171.071 78.458 177.004C77.088 180.549 74.6481 186.337 76.9101 190.016C78.8531 193.176 83.42 196.874 87.414 195.736C87.428 195.732 87.44 195.731 87.454 195.728C88.599 194.99 89.796 194.352 91.034 193.804C89.58 192.252 88.379 190.343 86.469 189.318C86.241 189.195 86.2341 189.032 86.3411 188.881C86.2541 188.765 86.286 188.609 86.552 188.435C89.436 186.539 92.84 185.625 96.347 185.336C95.264 183.805 93.955 182.423 93.479 180.557C93.384 180.182 94.724 179.83 94.818 180.199C94.824 180.22 94.833 180.239 94.838 180.26C99.411 179.763 104.009 179.408 108.501 179.898C107.868 178.925 107.34 177.923 106.865 176.869C104.87 177.305 102.175 176.117 100.65 174.358C94.523 177.142 88.621 180.406 82.211 182.528C81.421 182.79 81.276 182.182 82.05 181.926C88.37 179.833 94.1941 176.569 100.24 173.826C99.5851 172.872 99.282 171.797 99.593 170.74C99.986 169.406 101.1 168.995 102.271 169.072C102.404 167.734 102.97 166.268 104.315 166.115C104.281 166.052 104.263 165.976 104.267 165.886C104.516 159.318 105.422 152.8 105.254 146.217C105.237 145.574 106.597 145.396 106.615 146.131C106.784 152.714 105.878 159.232 105.628 165.8C105.621 165.985 105.503 166.129 105.34 166.226C105.559 166.291 105.773 166.375 105.981 166.478C106.876 165.348 108.165 165.2 109.359 165.677C111.555 164.531 113.836 165.731 114.982 167.929C116.202 170.267 115.869 172.772 112.997 173.314C112.845 173.343 112.736 173.346 112.656 173.332C112.569 173.355 112.505 173.371 112.465 173.381C112.406 173.477 112.34 173.57 112.269 173.662L112.216 173.759C120.599 175.605 127.797 184.202 130.098 192.514C130.43 193.251 130.683 194.026 130.84 194.842C138.058 189.774 147.103 187.944 156.059 187.293C151.994 177.378 150.36 166.302 148.944 155.746C148.433 151.941 148.389 148.083 147.838 144.289ZM174.052 176.533C173.191 172.693 172.455 168.798 172.247 164.86C172.079 161.665 172.136 158.461 171.983 155.265C171.934 155.264 171.887 155.268 171.838 155.265C171.449 155.246 171.652 155.052 171.966 154.887C171.941 154.415 171.911 153.942 171.874 153.471C171.153 144.187 168.777 130.297 157.88 128.18C157.904 130.076 157.319 131.816 156.486 133.572C155.263 136.147 154.433 138.915 155.339 141.748C156.227 144.524 157.955 146.755 159.57 149.139C165.323 157.63 168.668 168.079 170.39 178.119C170.461 178.528 169.113 178.839 169.051 178.477C167.11 167.166 162.987 156.71 156.612 147.199C155.959 146.225 155.418 145.275 154.985 144.333C153.142 145.362 151.44 145.407 149.428 144.971C149.807 148.272 149.788 151.692 150.169 154.53C151.631 165.43 153.237 176.869 157.463 187.099C157.478 187.133 157.485 187.166 157.49 187.199C160.901 186.996 164.283 186.948 167.532 186.942C167.85 186.589 168.817 186.492 168.777 187.009C168.704 187.94 167.897 188.909 167.376 189.632C166.84 190.376 166.283 191.127 165.661 191.807C166.866 191.813 168.071 191.819 169.275 191.819C169.478 191.819 169.796 191.901 169.624 192.158C169.263 192.695 168.333 194.439 167.51 195.541C171.736 195.864 174.274 191.596 174.952 187.825C175.643 183.973 174.894 180.29 174.052 176.533Z" fill="#2A2A2B"/>
<path d="M243.253 197.467C238.767 197.467 234.281 197.467 229.794 197.467C230.988 196.538 231.584 195.183 231.34 193.603C231.325 193.508 231.258 193.446 231.162 193.411C231.169 193.28 231.059 193.183 230.759 193.185C229.951 193.19 229.146 193.207 228.342 193.226C229.265 192.3 229.971 191.296 230.494 190.233C231.213 191.229 232.497 191.572 233.964 191.236C236.134 190.739 238.068 189.251 238.844 187.13C239.754 184.642 238.711 181.142 236.354 179.847C234.691 178.932 232.796 179.529 231.469 180.709C231.33 179.822 231.151 178.931 230.94 178.041C230.931 177.999 230.915 177.962 230.896 177.928C230.954 177.787 230.872 177.675 230.528 177.675C221.474 177.689 212.421 178.104 203.367 177.835C203.524 177.306 202.183 177.478 202.019 177.981C200.432 182.834 201.466 190.151 205.809 193.355C204.774 193.468 203.742 193.622 202.714 193.835C202.67 193.845 202.642 193.861 202.605 193.873C202.239 193.933 201.837 194.14 201.846 194.423C201.888 195.802 202.792 196.86 203.954 197.467C193.835 197.467 183.715 197.467 173.595 197.467C173.763 197.307 173.785 197.134 173.454 197.051C171.89 196.654 170.272 196.43 168.643 196.286C173.362 195.655 175.946 190.87 176.539 186.061C177.052 181.898 175.687 177.693 174.85 173.668C173.801 168.621 173.541 163.632 173.442 158.492C173.422 157.45 173.389 156.336 173.334 155.172C174.727 155.029 177.883 154.385 181.213 151.514C185.681 147.662 187.684 139.804 185.835 134.72C185.687 134.314 185.505 133.885 185.3 133.442C184.075 129.511 181.095 125.935 178.607 122.629C176.469 119.789 174.495 116.727 174.067 113.125C173.459 108.012 176.999 103.229 177.191 98.131C177.371 93.325 175.297 87.961 171.75 84.629C169.715 82.718 167.001 82.009 164.27 81.752C162.82 81.3 161.954 81.103 161.954 81.103L161.822 81.011C161.81 80.985 161.8 80.959 161.782 80.933C158.603 76.214 151.603 75.805 146.637 77.416C143.267 78.509 140.272 81.124 137.585 83.331C133.982 86.291 130.432 89.249 126.724 92.076C121.533 96.034 118.391 100.797 116.953 107.174C115.429 113.936 115.342 121.156 120.804 125.987C120.65 126.092 120.569 126.217 120.652 126.336C120.675 126.367 120.698 126.4 120.721 126.432C120.604 126.462 120.487 126.493 120.368 126.518C120.192 126.555 120.074 126.628 119.99 126.715C115.209 127.196 110.168 127.907 105.681 129.618C105.695 116.823 106.126 104.032 106.141 91.237C106.484 91.084 106.751 90.902 106.37 90.902C84.799 90.908 63.232 91.357 41.6604 91.364C41.3863 91.364 40.1365 91.901 40.7891 91.901C40.8769 91.901 40.9652 91.9 41.0535 91.9C41.01 91.969 40.9832 92.048 40.9832 92.137C40.9832 127.246 40.9832 162.357 40.9832 197.467C37.9959 197.467 35.0086 197.467 32.0209 197.467C31.267 197.467 30.9837 198.417 31.8942 198.417C34.9241 198.417 37.9534 198.417 40.9832 198.417C40.9832 198.427 40.9832 198.436 40.9832 198.446C40.9832 199.163 42.2627 199.019 42.338 198.417C56.331 198.417 70.325 198.417 84.318 198.417C84.476 198.483 84.784 198.476 85.043 198.417C121.782 198.417 158.52 198.417 195.26 198.417C211.215 198.417 227.171 198.417 243.127 198.417C243.88 198.416 244.164 197.467 243.253 197.467ZM92.315 193.273C90.857 191.733 89.636 189.842 87.801 188.728C87.799 188.726 87.796 188.724 87.796 188.724C87.811 188.715 87.826 188.706 87.84 188.696C93.981 184.953 102.542 185.853 109.179 187.583C115.273 189.172 122.099 190.924 127.516 194.404C124.376 193.506 121.129 192.945 117.931 192.349C113.552 191.533 109.21 190.98 104.75 191.037C100.501 191.091 96.236 191.761 92.315 193.273ZM111.484 167.361C111.095 166.829 110.61 166.378 110.082 166.043C112.814 164.519 116.3 172.064 113.202 172.65C113.021 172.684 112.847 172.775 112.716 172.879C113.407 171.147 112.632 168.929 111.484 167.361ZM157.462 187.098C153.236 176.869 151.63 165.43 150.168 154.53C149.787 151.692 149.806 148.271 149.428 144.971C151.439 145.406 153.141 145.362 154.984 144.333C155.418 145.275 155.958 146.225 156.611 147.198C162.986 156.71 167.109 167.166 169.051 178.477C169.112 178.838 170.46 178.527 170.39 178.118C168.667 168.079 165.322 157.63 159.569 149.138C157.954 146.755 156.226 144.524 155.338 141.748C154.432 138.914 155.262 136.147 156.485 133.571C157.318 131.816 157.903 130.076 157.879 128.18C168.776 130.297 171.152 144.187 171.873 153.47C171.91 153.942 171.94 154.415 171.965 154.887C171.651 155.052 171.448 155.246 171.837 155.265C171.886 155.268 171.933 155.264 171.982 155.265C172.135 158.461 172.078 161.664 172.246 164.86C172.454 168.798 173.191 172.692 174.051 176.532C174.893 180.29 175.643 183.973 174.95 187.825C174.272 191.596 171.735 195.865 167.508 195.541C168.331 194.439 169.261 192.695 169.622 192.159C169.794 191.901 169.476 191.819 169.273 191.819C168.069 191.819 166.864 191.813 165.659 191.807C166.281 191.127 166.838 190.376 167.375 189.632C167.895 188.91 168.703 187.94 168.775 187.009C168.816 186.493 167.848 186.59 167.53 186.942C164.281 186.948 160.899 186.996 157.488 187.199C157.485 187.166 157.477 187.132 157.462 187.098ZM144.796 134.696C142.712 132.4 143.67 129.296 144.525 126.601C148.396 126.935 152.139 125.268 155.405 122.553C155.483 123.826 155.933 125.125 156.226 126.313C156.891 129 156.303 131.33 155.157 133.776C153.503 137.303 153.424 140.327 154.587 143.387C152.81 144.519 151.257 144.347 149.277 143.816C148.742 140.213 147.607 136.858 144.796 134.696ZM160.168 112.039C160.203 112.055 160.25 112.064 160.301 112.067C160.255 112.127 160.251 112.181 160.313 112.219C162.146 113.345 161.69 115.41 160.681 116.969C159.26 119.166 156.535 120.661 154.097 119.161C149.519 116.344 156.427 110.252 160.168 112.039ZM161.381 106.444C162.075 107.714 162.712 109.054 163.171 110.4C162.77 110.942 162.447 111.547 162.063 112.101C161.916 111.967 161.754 111.838 161.564 111.721C161.505 111.685 161.424 111.669 161.332 111.668C161.39 111.584 161.378 111.502 161.247 111.44C158.621 110.186 155.441 111.479 153.385 113.248C153.291 113.328 153.204 113.413 153.115 113.497C152.274 111.852 150.629 110.867 148.814 110.76C150.192 109.023 151.086 106.39 148.853 105.019C148.794 104.982 148.712 104.967 148.621 104.966C148.679 104.882 148.667 104.8 148.536 104.738C146.163 103.605 143.341 104.554 141.301 106.051C140.549 105.021 139.648 104.121 138.739 103.229C139.271 103.053 139.875 102.906 140.538 102.828C143.157 102.52 149.782 103.444 153.172 100.671C154.668 99.447 155.653 98.403 156.34 97.446C157.295 96.347 157.941 95.032 158.119 93.488C158.25 93.062 158.344 92.758 158.409 92.547C158.296 97.481 158.973 102.04 161.381 106.444ZM147.457 105.337C147.492 105.353 147.539 105.361 147.59 105.365C147.544 105.425 147.54 105.479 147.602 105.517C149.435 106.643 148.979 108.708 147.97 110.267C147.803 110.525 147.618 110.772 147.418 111.007C147.229 111.115 147.099 111.229 147.16 111.29C145.65 112.875 143.42 113.71 141.387 112.459C136.808 109.642 143.717 103.55 147.457 105.337ZM129.137 123.627C131.919 119.674 133.306 111.413 131.058 107.824C131.004 107.661 130.944 107.501 130.874 107.34C129.893 105.093 127.161 104.04 128.474 101.184C129.468 99.019 131.982 98.269 134.151 98.824C134.889 99.013 135.479 99.38 135.937 99.858C136.851 101.577 136.224 104.523 136.224 104.523C136.224 104.523 136.574 104.238 137.197 103.898C137.297 104.052 137.567 104.085 137.836 104.036C138.68 104.869 139.503 105.722 140.176 106.705C140.218 106.766 140.295 106.797 140.392 106.806C138.427 108.69 137.77 111.502 140.437 113.144C142.946 114.688 146.183 113.362 148.122 111.522C148.179 111.468 148.236 111.407 148.292 111.35C149.913 111.553 151.32 112.712 151.948 114.229C151.993 114.338 152.158 114.367 152.358 114.349C151.02 116.157 150.855 118.435 153.148 119.846C153.954 120.342 154.835 120.539 155.724 120.521C155.692 120.553 155.665 120.587 155.651 120.624C155.577 120.822 155.525 121.022 155.484 121.224C153.75 122.876 151.86 124.286 149.624 125.237C146.111 126.731 142.518 125.693 139.509 123.637C139.094 123.355 137.876 123.943 138.457 124.339C140.08 125.447 141.711 126.12 143.327 126.434C142.503 129.059 141.475 132.074 143.005 134.471C142.857 134.644 142.837 134.85 143.083 135.015C136.583 141.879 127.166 132.813 122.709 126.946C124.099 126.993 126.99 126.677 129.137 123.627ZM97.871 185.247C96.897 183.813 95.676 182.525 95.049 180.907C102.519 180.117 109.738 179.894 116.74 183.067C121.169 185.074 126.632 188.218 128.767 192.914C128.869 193.278 128.958 193.641 129.039 194.003C126.145 192.094 122.863 190.816 119.599 189.683C115.736 188.342 111.742 187.079 107.741 186.222C104.646 185.559 101.237 185.14 97.871 185.247ZM109.931 179.684C109.212 178.598 108.629 177.479 108.106 176.293C108.293 176.146 108.463 175.97 108.615 175.767C109.753 176.044 111.138 175.967 111.345 174.645C117.921 175.918 123.755 181.773 126.947 188.219C124.187 185.585 120.484 183.656 117.323 182.223C114.793 181.076 112.194 180.399 109.555 180.029C109.808 179.922 109.993 179.778 109.931 179.684ZM104.867 167.274C106.146 167.783 107.17 169.085 107.969 170.149C108.803 171.258 109.58 172.517 109.925 173.874C110.003 174.177 110.081 174.649 109.917 174.896C109.897 174.899 109.845 174.911 109.737 174.902C109.528 174.885 109.326 174.831 109.128 174.764C109.132 174.752 109.137 174.741 109.141 174.728C109.17 174.637 109.108 174.58 108.996 174.553C108.312 172.453 106.128 170.564 104.283 169.636C104.066 169.527 103.832 169.43 103.59 169.346C103.6 169.313 103.608 169.279 103.61 169.242C103.668 168.299 103.75 166.831 104.867 167.274ZM110.658 168.506C111.509 169.836 112.103 171.905 111.245 173.287C110.901 171.922 109.942 170.562 109.191 169.542C108.578 168.71 107.803 167.749 106.894 167.051C107.334 166.244 107.812 165.981 108.719 166.473C109.541 166.92 110.163 167.733 110.658 168.506ZM131.061 195.735C131.072 195.709 131.075 195.683 131.069 195.659C141.033 188.158 155.176 187.698 167.147 187.681C167.197 187.681 167.252 187.671 167.309 187.657C167.063 188.342 166.493 189.02 166.115 189.554C165.567 190.33 164.985 191.106 164.322 191.789C164.317 191.793 164.316 191.797 164.312 191.801C161.072 191.789 157.831 191.799 154.598 191.964C146.643 192.373 138.79 193.874 131.061 195.735ZM104.982 171.455C106.095 172.373 107.26 173.617 107.692 175.044C107.651 175.13 107.64 175.217 107.666 175.299C107.509 175.63 107.307 175.857 107.074 176.009C106.97 176.049 106.875 176.097 106.801 176.148C105.644 176.577 103.947 175.504 102.944 174.721C101.546 173.63 100.461 172.099 100.997 170.277C101.041 170.127 101.11 170.018 101.19 169.928C101.387 169.704 101.677 169.646 102.019 169.706C103.052 169.886 104.509 171.064 104.982 171.455ZM154.917 192.612C159.318 192.386 163.748 192.498 168.156 192.507C167.35 193.688 166.487 194.862 165.749 196.091C165.015 196.053 164.284 196.018 163.561 195.982C158.699 195.731 153.827 195.664 148.959 195.639C144.656 195.617 140.352 195.648 136.049 195.735C135.465 195.747 134.756 195.7 134.019 195.671C140.903 194.122 147.854 192.973 154.917 192.612ZM118.039 127.888C119.22 127.755 120.389 127.641 121.535 127.535C126.573 134.094 136.422 142.453 143.778 135.514C146.459 137.63 147.357 140.971 147.839 144.288C148.389 148.083 148.434 151.94 148.944 155.746C150.36 166.302 151.994 177.378 156.059 187.293C147.103 187.945 138.058 189.774 130.84 194.842C130.683 194.025 130.43 193.251 130.098 192.514C127.797 184.202 120.599 175.605 112.216 173.759C112.209 173.758 112.203 173.756 112.196 173.755C112.222 173.725 112.246 173.694 112.27 173.663C112.34 173.571 112.407 173.478 112.466 173.381C112.487 173.346 112.507 173.31 112.527 173.274C112.552 173.302 112.594 173.322 112.656 173.333C112.735 173.346 112.845 173.343 112.997 173.314C115.869 172.771 116.202 170.267 114.982 167.929C113.836 165.731 111.555 164.531 109.359 165.677C108.165 165.201 106.876 165.348 105.981 166.478C105.773 166.375 105.559 166.291 105.34 166.226C105.503 166.129 105.621 165.985 105.628 165.8C105.878 159.232 106.784 152.714 106.615 146.131C106.597 145.395 105.238 145.575 105.254 146.217C105.422 152.8 104.517 159.318 104.267 165.886C104.264 165.976 104.282 166.052 104.315 166.115C102.97 166.268 102.404 167.734 102.271 169.072C101.1 168.995 99.985 169.406 99.593 170.74C99.282 171.797 99.584 172.872 100.24 173.827C94.195 176.57 88.37 179.834 82.05 181.926C81.276 182.183 81.421 182.79 82.211 182.528C88.621 180.406 94.523 177.143 100.65 174.358C102.175 176.117 104.87 177.305 106.865 176.869C107.34 177.922 107.868 178.924 108.501 179.898C104.01 179.408 99.411 179.763 94.838 180.26C94.832 180.239 94.823 180.22 94.818 180.199C94.725 179.83 93.384 180.183 93.479 180.557C93.955 182.423 95.264 183.805 96.347 185.336C92.84 185.625 89.436 186.539 86.552 188.435C86.286 188.61 86.254 188.765 86.341 188.881C86.235 189.032 86.241 189.196 86.469 189.318C88.379 190.343 89.581 192.252 91.034 193.804C89.796 194.352 88.599 194.991 87.454 195.728C87.44 195.731 87.428 195.732 87.415 195.736C83.42 196.874 78.853 193.176 76.91 190.016C74.648 186.337 77.087 180.55 78.458 177.004C80.75 171.071 83.113 165.215 85.692 159.442C86.231 158.234 86.781 157.031 87.341 155.831C87.44 155.777 87.523 155.723 87.57 155.676C87.6 155.646 87.615 155.619 87.61 155.596C87.603 155.569 87.559 155.551 87.477 155.545C88.375 153.626 89.296 151.714 90.256 149.815C90.439 149.453 90.624 149.084 90.81 148.712C90.937 148.623 91.017 148.514 90.997 148.396C90.995 148.381 90.992 148.366 90.99 148.351C92.681 144.96 94.51 141.252 96.831 138.034C97.737 136.779 98.718 135.599 99.795 134.542C100.064 134.462 100.295 134.296 100.296 134.087C100.296 134.079 100.296 134.072 100.296 134.066C101.689 132.783 103.238 131.705 104.989 130.931C107.526 129.811 110.311 129.088 113.149 128.58C114.774 128.289 116.416 128.07 118.039 127.888ZM47.4408 150.711C47.4408 133.077 47.4408 115.441 47.4408 97.808C64.738 97.787 82.033 97.43 99.331 97.415C99.319 109.537 98.967 121.656 98.951 133.778C98.63 134.085 98.316 134.402 98.01 134.731C96.945 128.208 95.881 121.686 94.817 115.164C94.803 115.079 94.699 115.038 94.556 115.03C94.541 114.763 94.174 114.658 93.95 114.695C92.706 114.898 91.461 115.101 90.217 115.304C90.21 115.257 90.202 115.21 90.194 115.163C90.163 114.969 90.02 114.865 89.838 114.83C89.709 114.712 89.483 114.669 89.328 114.695C88.083 114.897 86.839 115.101 85.595 115.304C85.587 115.257 85.58 115.21 85.572 115.163C85.555 115.058 85.452 115.002 85.311 114.983C85.26 114.748 84.916 114.66 84.706 114.694C83.461 114.897 82.217 115.1 80.973 115.303C80.965 115.256 80.958 115.209 80.95 115.162C80.925 115.008 80.805 114.923 80.649 114.89C80.541 114.725 80.264 114.664 80.083 114.694C78.839 114.897 77.595 115.1 76.351 115.303C76.343 115.256 76.336 115.209 76.328 115.162C76.312 115.063 76.208 115.011 76.066 114.995C76.026 114.752 75.676 114.658 75.461 114.694C74.217 114.897 72.973 115.1 71.729 115.303C71.721 115.256 71.714 115.209 71.706 115.162C71.681 115.012 71.563 114.928 71.408 114.896C71.302 114.726 71.021 114.664 70.839 114.693C69.595 114.896 68.351 115.099 67.107 115.302C67.099 115.255 67.091 115.209 67.084 115.161C67.073 115.097 66.969 115.072 66.824 115.073C66.852 114.771 66.453 114.655 66.217 114.693C64.973 114.896 63.728 115.099 62.485 115.302C62.477 115.255 62.469 115.209 62.461 115.161C62.44 115.027 62.326 114.953 62.176 114.925C62.086 114.734 61.787 114.661 61.595 114.693C60.351 114.896 59.106 115.099 57.862 115.302C57.855 115.255 57.847 115.208 57.839 115.161C57.83 115.101 57.725 115.078 57.58 115.081C57.618 114.773 57.211 114.653 56.973 114.692C55.74 114.893 54.5086 115.094 53.2768 115.295C53.2569 115.173 53.237 115.052 53.2171 114.93C53.2028 114.842 53.0993 114.799 52.9565 114.788C52.9357 114.527 52.5724 114.425 52.3505 114.461C51.0581 114.672 49.7653 114.883 48.473 115.094C48.1906 115.14 47.7787 115.273 47.7288 115.611C47.7136 115.713 47.7491 115.792 47.8083 115.854C47.781 115.888 47.7667 115.923 47.7723 115.959C49.6669 127.563 51.561 139.167 53.4552 150.772C53.4589 150.795 53.4788 150.813 53.5056 150.827C51.4663 150.839 49.4265 150.849 47.3872 150.85C47.421 150.808 47.4408 150.761 47.4408 150.711ZM90.958 145.66C89.35 135.809 87.742 125.959 86.133 116.108C87.048 115.959 87.963 115.81 88.877 115.66C90.29 124.313 91.703 132.966 93.115 141.619C92.352 142.954 91.637 144.316 90.958 145.66ZM94.537 139.271C93.276 131.55 92.016 123.829 90.755 116.108C91.67 115.959 92.585 115.81 93.5 115.66C94.611 122.468 95.722 129.276 96.834 136.084C96.015 137.089 95.253 138.16 94.537 139.271ZM49.1561 115.877C50.0708 115.728 50.9856 115.579 51.9003 115.429C53.8217 127.2 55.743 138.97 57.665 150.74C57.668 150.763 57.678 150.782 57.692 150.798C56.475 150.809 55.259 150.817 54.0422 150.825C54.4152 150.754 54.8224 150.587 54.7947 150.415C52.9149 138.903 51.036 127.39 49.1561 115.877ZM59.365 150.329C57.503 138.921 55.641 127.515 53.7787 116.108C54.6935 115.959 55.608 115.81 56.523 115.66C58.427 127.324 60.331 138.989 62.235 150.653C62.249 150.734 62.434 150.748 62.661 150.72C62.665 150.729 62.667 150.739 62.672 150.747C61.447 150.761 60.222 150.773 58.998 150.785C59.226 150.68 59.396 150.517 59.365 150.329ZM58.4 116.108C59.315 115.959 60.23 115.81 61.145 115.66C63.048 127.324 64.953 138.989 66.857 150.653C66.86 150.669 66.867 150.683 66.873 150.698C65.786 150.711 64.699 150.724 63.613 150.736C63.842 150.638 64.014 150.493 63.987 150.329C62.125 138.922 60.263 127.515 58.4 116.108ZM63.023 116.108C63.937 115.959 64.852 115.81 65.767 115.66C67.67 127.321 69.574 138.983 71.477 150.644C70.399 150.656 69.321 150.669 68.243 150.682C68.465 150.592 68.631 150.465 68.609 150.329C66.747 138.922 64.885 127.515 63.023 116.108ZM67.645 116.108C68.559 115.959 69.474 115.81 70.389 115.66C72.29 127.304 74.191 138.949 76.092 150.593C75.12 150.603 74.149 150.612 73.178 150.623C73.226 150.535 73.249 150.437 73.232 150.328C71.369 138.922 69.507 127.515 67.645 116.108ZM72.267 116.108C73.182 115.959 74.096 115.81 75.011 115.66C76.909 127.29 78.808 138.921 80.707 150.55C79.723 150.558 78.739 150.566 77.755 150.576C77.828 150.501 77.868 150.418 77.854 150.329C75.991 138.922 74.129 127.515 72.267 116.108ZM76.889 116.108C77.804 115.959 78.718 115.81 79.633 115.66C81.53 127.281 83.427 138.901 85.324 150.522C84.356 150.526 83.388 150.531 82.42 150.538C82.464 150.473 82.488 150.403 82.476 150.329C80.614 138.922 78.751 127.515 76.889 116.108ZM81.511 116.108C82.426 115.959 83.341 115.81 84.255 115.66C86.036 126.57 87.818 137.481 89.599 148.392C89.241 149.115 88.89 149.825 88.544 150.512C88.043 150.512 87.541 150.515 87.04 150.516C87.085 150.457 87.109 150.395 87.098 150.329C85.236 138.922 83.373 127.515 81.511 116.108ZM42.3186 91.897C63.147 91.871 83.974 91.456 104.803 91.441C104.791 104.352 104.351 117.259 104.341 130.172C104.079 130.287 103.816 130.402 103.558 130.526C102.39 131.086 101.309 131.784 100.302 132.591C100.336 120.781 100.668 108.974 100.678 97.164C100.984 97.009 101.184 96.839 100.819 96.839C100.746 96.839 100.673 96.84 100.599 96.84C100.407 96.621 99.906 96.661 99.594 96.843C82.129 96.866 64.667 97.23 47.2019 97.237C46.9042 97.237 45.6719 97.81 46.3394 97.811C46.1989 97.888 46.1018 97.986 46.1018 98.1C46.1018 115.757 46.1018 133.413 46.1018 151.07C46.1018 151.142 46.1906 151.18 46.3218 151.191C46.1198 151.317 46.045 151.428 46.3408 151.428C60.314 151.424 74.285 151.095 88.26 151.085C87.512 152.568 86.786 154.054 86.075 155.546C73.116 155.575 60.161 155.933 47.2019 155.938C46.9042 155.938 45.6701 156.513 46.3408 156.513C46.546 156.513 46.7512 156.511 46.9564 156.51C46.5728 156.549 46.1018 156.753 46.1018 157.048C46.1018 170.52 46.1018 183.995 46.1018 197.468C44.8497 197.468 43.5975 197.468 42.3454 197.468C42.3454 162.329 42.3454 127.191 42.3454 92.053C42.3449 91.994 42.3338 91.944 42.3186 91.897ZM54.222 197.467C54.5345 197.383 54.8183 197.243 54.7947 197.099C52.9153 185.586 51.036 174.074 49.1561 162.561C50.0708 162.411 50.9856 162.262 51.9003 162.113C53.8217 173.883 55.743 185.654 57.665 197.424C57.667 197.44 57.675 197.454 57.684 197.467C56.53 197.467 55.376 197.467 54.222 197.467ZM59.001 197.467C59.227 197.362 59.396 197.2 59.365 197.013C57.503 185.605 55.641 174.199 53.7787 162.793C54.6935 162.643 55.608 162.494 56.523 162.344C58.427 174.008 60.331 185.673 62.235 197.337C62.249 197.418 62.434 197.432 62.661 197.404C62.671 197.428 62.687 197.45 62.707 197.468C61.472 197.467 60.236 197.467 59.001 197.467ZM63.489 197.467C63.776 197.373 64.018 197.205 63.987 197.013C62.124 185.605 60.262 174.199 58.4 162.793C59.315 162.643 60.23 162.494 61.145 162.344C63.048 174.008 64.953 185.673 66.857 197.337C66.866 197.39 66.891 197.431 66.925 197.467C65.779 197.467 64.634 197.467 63.489 197.467ZM67.902 197.467C68.265 197.394 68.642 197.214 68.609 197.013C66.747 185.605 64.884 174.199 63.023 162.793C63.937 162.643 64.852 162.494 65.767 162.344C67.671 174.008 69.575 185.673 71.479 197.337C71.519 197.578 72.869 197.287 72.818 196.979C70.907 185.268 68.995 173.558 67.083 161.847C67.073 161.783 66.969 161.758 66.823 161.759C66.852 161.457 66.452 161.341 66.216 161.379C64.972 161.582 63.728 161.785 62.484 161.988C62.476 161.941 62.469 161.895 62.461 161.847C62.439 161.713 62.326 161.639 62.176 161.611C62.086 161.42 61.787 161.347 61.594 161.379C60.35 161.582 59.106 161.785 57.862 161.988C57.854 161.941 57.847 161.894 57.839 161.847C57.829 161.787 57.725 161.764 57.58 161.767C57.618 161.459 57.211 161.339 56.972 161.378C55.74 161.579 54.5081 161.78 53.2763 161.981C53.2564 161.859 53.2366 161.738 53.2167 161.616C53.2024 161.528 53.0988 161.485 52.956 161.474C52.9352 161.213 52.5719 161.111 52.35 161.147C51.0577 161.358 49.7649 161.569 48.4725 161.78C48.1901 161.826 47.7783 161.959 47.7283 162.297C47.7131 162.399 47.7487 162.478 47.8078 162.54C47.7806 162.574 47.7662 162.609 47.7718 162.645C49.6664 174.249 51.5606 185.853 53.4547 197.458C53.4552 197.461 53.4584 197.463 53.4598 197.467C51.4353 197.467 49.4108 197.467 47.3863 197.467C47.4205 197.415 47.4404 197.36 47.4404 197.3C47.4404 183.762 47.4404 170.226 47.4404 156.688C47.4404 156.582 47.3355 156.526 47.1862 156.508C60.061 156.488 72.932 156.136 85.806 156.117C84.085 159.753 82.464 163.425 80.975 167.187C79.123 171.867 77.043 176.555 75.617 181.387C74.406 185.492 74.269 189.551 77.338 192.82C79.352 194.965 82.665 196.895 85.794 196.897C85.553 197.082 85.315 197.272 85.08 197.466C83.165 197.466 81.25 197.466 79.334 197.466C75.524 197.467 71.713 197.467 67.902 197.467ZM87.328 196.728C87.439 196.703 87.551 196.685 87.66 196.654C87.991 196.559 88.147 196.355 88.164 196.159C89.366 195.373 90.621 194.71 91.921 194.16C92.086 194.126 92.244 194.058 92.363 193.97C96.496 192.312 101.043 191.73 105.624 191.734C109.793 191.738 113.878 192.432 117.963 193.193C121.978 193.941 126.061 194.664 129.873 196.17C129.967 196.207 130.115 196.199 130.276 196.164C130.272 196.194 130.27 196.224 130.28 196.251C130.271 196.263 130.266 196.275 130.259 196.286C122.537 197.261 114.476 196.9 106.726 197.01C102.362 197.073 97.998 197.117 93.634 197.178C92.059 197.199 89.581 196.773 88.078 197.416C88.04 197.432 88.009 197.449 87.977 197.466C87.435 197.466 86.894 197.466 86.353 197.466C86.673 197.21 86.999 196.966 87.328 196.728ZM125.867 197.467C127.596 197.35 129.316 197.185 131.016 196.944C131.249 196.911 131.453 196.788 131.581 196.648C131.93 196.63 132.279 196.616 132.629 196.603C134.08 196.554 135.531 196.526 136.983 196.5C141.145 196.427 145.309 196.411 149.473 196.437C153.999 196.465 158.527 196.552 163.049 196.773C163.791 196.81 164.542 196.843 165.296 196.881C165.292 196.888 165.288 196.895 165.284 196.902C165.203 197.054 165.448 197.121 165.533 197.143C165.536 197.144 165.539 197.144 165.542 197.145C165.723 197.193 166.085 197.086 166.338 196.941C167.919 197.038 169.503 197.186 171.05 197.467C155.988 197.467 140.928 197.467 125.867 197.467ZM231.901 181.539C233.276 179.686 235.044 179.804 236.482 181.475C237.724 182.918 237.989 185.25 237.599 187.04C236.934 190.09 231.712 192.658 231.253 188.239C231.827 186.188 231.873 183.978 231.607 181.717C231.74 181.668 231.85 181.608 231.901 181.539ZM207.069 192.812C202.985 190 201.955 183.285 203.144 178.624C211.968 178.873 220.791 178.486 229.616 178.461C230.88 183.842 231.161 189.416 226.687 193.269C223.65 193.357 220.624 193.461 217.558 193.316C214.088 193.152 210.607 192.976 207.152 193.231C207.256 193.096 207.26 192.944 207.069 192.812ZM205.822 197.157C204.564 196.752 203.512 195.873 203.249 194.593C208.332 193.601 213.555 194.048 218.692 194.278C221.185 194.39 223.647 194.285 226.115 194.188C226.31 194.431 226.842 194.528 227.177 194.263C227.228 194.223 227.275 194.182 227.325 194.141C228.218 194.11 229.113 194.085 230.011 194.075C230.188 195.474 229.641 196.697 228.403 197.424C228.383 197.436 228.362 197.451 228.342 197.467C220.864 197.467 213.387 197.467 205.91 197.467C205.985 197.347 206.004 197.216 205.822 197.157ZM144.6 117.652C144.839 117.772 145.079 117.892 145.318 118.011C146.003 117.091 146.658 116.15 147.458 115.323C147.77 115.001 149.084 114.983 148.534 115.55C147.608 116.506 146.899 117.646 146.078 118.689C145.843 118.987 145.279 119.177 144.922 118.998C144.46 118.767 143.998 118.536 143.535 118.305C142.974 118.025 144.204 117.454 144.6 117.652ZM136.234 117.927C135.709 117.084 135.568 116.047 135.778 115.082C135.858 114.716 137.185 114.497 137.105 114.866C136.905 115.781 137.078 116.774 137.573 117.569C137.715 117.796 136.463 118.295 136.234 117.927ZM210.123 154.352C208.6 152.415 208.256 149.349 208.944 147.018C209.615 144.749 211.165 143.628 213.115 142.446C213.367 142.293 214.721 142.158 214.146 142.506C211.084 144.361 209.41 146.862 210.093 150.618C210.671 153.797 212.778 155.227 215.071 157.188C216.717 158.596 218.147 160.782 217.465 163.063C216.802 165.28 214.765 166.485 213.315 168.162C213.1 168.412 211.81 168.583 212.098 168.249C213.99 166.06 217.248 164.217 216.031 160.781C214.977 157.807 211.979 156.712 210.123 154.352ZM216.397 147.13C216.038 144.003 216.092 138.485 219.888 137.475C220.672 137.266 220.792 137.715 220.008 137.924C218.06 138.442 217.686 142.344 217.631 143.889C217.572 145.559 217.507 147.827 218.462 149.301C220.811 152.927 225.963 154.628 224.77 159.772C224.689 160.119 223.371 160.326 223.446 159.999C224.833 154.02 217.016 152.533 216.397 147.13Z" fill="#2A2A2B"/>
<path d="M297.5 -14.5H-20.5V287.5H297.5V-14.5Z" stroke="#3ABB37"/>
</g>
<defs>
<linearGradient id="paint0_linear_1_105" x1="101.389" y1="347.371" x2="157.382" y2="61.957" gradientUnits="userSpaceOnUse">
<stop stop-color="#FAC7FF"/>
<stop offset="1" stop-color="#FFD2BE"/>
</linearGradient>
<linearGradient id="paint1_linear_1_105" x1="22.0823" y1="45.27" x2="76.005" y2="56.109" gradientUnits="userSpaceOnUse">
<stop stop-color="#FAC7FF"/>
<stop offset="1" stop-color="#FFD2BE"/>
</linearGradient>
</defs>
</svg>
