<svg width="292" height="220" viewBox="0 0 292 220" fill="none" xmlns="http://www.w3.org/2000/svg">
<path d="M177.921 77.468C176.05 20.142 96.082 1.83199 48.849 15.129C1.61619 28.425 -3.76181 80.738 2.55149 142.205C8.86479 203.673 69.8143 242.851 111.748 204.763C148.225 171.632 179.791 134.794 177.921 77.468Z" fill="url(#paint0_linear_1_39)"/>
<path d="M215.994 93.865L216.708 89.638L213.736 89.741L211.041 87.898L207.896 87.717L207.619 92.282C208.194 94.351 214.277 94.947 215.994 93.865Z" fill="white"/>
<path d="M208.508 66.275L207.832 69.19L206.327 71.455L208.018 71.69L208.047 75.81C207.664 75.712 207.125 75.591 206.298 75.445L209.646 78.717L211.967 82.955C211.687 83.462 211.67 84.13 212.009 84.839C212.121 85.07 210.539 86.086 211.164 87.444C211.443 88.046 211.993 88.178 213.869 89.165C215.433 89.992 219.503 89.427 219.327 86.954C219.29 86.419 219.536 86.046 219.834 85.645C219.971 85.511 220.087 85.358 220.181 85.19C220.586 84.649 220.809 83.992 220.815 83.315C220.816 82.631 220.93 81.951 221.153 81.303C221.205 81.167 221.246 81.027 221.274 80.884C221.322 80.715 221.369 80.536 221.416 80.323C221.771 78.749 220.718 77.65 219.124 76.941L219.8 73.325L221.814 73.604L220.98 70.814L221.087 67.927L208.508 66.275ZM212.956 82.188C212.625 82.281 212.33 82.474 212.111 82.74C212.202 82.591 212.325 82.464 212.471 82.368C212.617 82.273 212.783 82.211 212.956 82.188Z" fill="white"/>
<path d="M189.658 49.75C189.584 49.691 189.504 49.639 189.42 49.595L189.658 49.75Z" fill="white"/>
<path d="M198.807 55.743L202.036 57.857C201.647 56.269 201.326 54.656 198.807 55.743Z" fill="white"/>
<path d="M205.294 59.987L202.041 57.857C202.415 59.363 202.864 60.848 205.294 59.987Z" fill="white"/>
<path d="M140.276 95.116L145.427 95.256L152.942 95.454C148.726 95.285 144.582 95.089 140.276 95.116Z" fill="white"/>
<path d="M116.027 49.014C114.336 48.654 114.556 48.156 113.57 49.539C112.218 51.435 109.979 55.471 109.979 55.471C110.05 55.809 111.215 55.655 111.562 55.919L116.027 49.014Z" fill="white"/>
<path d="M208.241 65.889L207.502 69.049L205.725 71.724L207.671 71.993L207.695 75.374C207.419 75.311 207.083 75.24 206.667 75.164C206.702 74.743 206.733 74.319 206.75 73.898C206.768 73.421 206.772 73.308 195.422 70.723C190.871 69.685 186.166 68.613 185.187 68.206C184.784 68.036 183.484 65.734 181.581 61.091C181.05 59.798 180.546 58.498 180.117 57.329L179.812 57.51L179.511 57.691L177.68 58.785L177.278 59.025L176.876 59.265L173.717 74.843L173.699 74.936L173.729 75.026C174.478 77.186 178.463 82.11 184.688 84.243L205.027 88.668V88.237C205.027 87.941 205.027 87.645 205.044 87.349C205.856 87.591 206.699 87.717 207.548 87.723L207.27 92.328L207.286 92.384C207.475 93.06 208.148 93.645 209.23 94.066C210.507 94.522 211.854 94.751 213.21 94.742C214.444 94.742 215.556 94.551 216.177 94.162L216.309 94.079L217.049 89.706C217.564 89.594 218.056 89.394 218.503 89.114C219.326 88.578 219.727 87.822 219.665 86.931C219.636 86.527 219.82 86.238 220.092 85.88C220.246 85.725 220.378 85.549 220.483 85.357C220.914 84.768 221.151 84.059 221.159 83.329C221.153 82.68 221.256 82.036 221.462 81.421L221.472 81.386C221.522 81.253 221.562 81.117 221.592 80.979C221.639 80.809 221.688 80.617 221.737 80.397C221.847 79.963 221.847 79.508 221.737 79.074C221.628 78.64 221.412 78.24 221.11 77.91C220.657 77.412 220.11 77.009 219.499 76.726L220.069 73.702L222.288 74.01L221.323 70.77L221.44 67.624L208.241 65.889ZM220.204 73.029L217.724 72.691L210.05 71.616L208.359 71.381L208.021 71.333L207.673 71.284L206.92 71.181L208.072 69.448L220.714 71.119L221.328 73.176L220.204 73.029ZM220.723 68.226L220.643 70.424L208.275 68.784L208.772 66.659L220.723 68.226ZM205.079 86.625C205.209 84.558 205.559 82.52 205.901 80.539C206.166 79.007 206.433 77.437 206.601 75.856C207.062 75.942 207.417 76.025 207.7 76.086V76.316C207.772 77.45 209.585 78.344 213.086 78.962C213.732 79.077 214.383 79.168 215.003 79.242C215.935 79.538 217.519 80.392 218.123 81.398C218.41 81.878 218.441 82.324 218.214 82.76C218.157 82.898 218.072 83.022 217.965 83.126C217.859 83.229 217.732 83.31 217.593 83.364C217.017 83.543 216.172 83.09 215.353 82.652C214.589 82.245 213.805 81.826 213.091 81.836V81.802C213.017 81.817 212.946 81.834 212.877 81.854C212.8 81.865 212.724 81.882 212.65 81.905C212.314 82.017 212.026 82.241 211.835 82.539C211.756 82.638 211.686 82.744 211.629 82.857C211.333 83.442 211.336 84.147 211.629 84.854C211.592 84.903 211.541 84.963 211.495 85.023C211.157 85.432 210.572 86.132 210.677 87.014C210.22 86.988 209.763 86.988 209.306 87.014C208.078 87.051 206.364 87.109 205.079 86.625ZM210.789 87.435C210.8 87.471 210.816 87.506 210.831 87.542H210.77L210.789 87.435ZM218.973 86.977C219.017 87.611 218.731 88.133 218.128 88.529C216.944 89.307 214.944 89.344 214.026 88.867C213.576 88.629 213.196 88.438 212.892 88.284C211.901 87.785 211.637 87.641 211.483 87.308C211.159 86.607 211.58 86.013 212.036 85.466L212.112 85.376C213.519 86.48 215.139 87.067 216.721 87.067C217.099 87.067 217.477 87.033 217.849 86.965C218.24 86.896 218.621 86.783 218.987 86.627C218.97 86.743 218.965 86.86 218.973 86.977ZM220.459 83.307C220.439 84.282 220.035 84.81 219.643 85.322L219.566 85.42C219.156 85.821 218.493 86.135 217.719 86.279C216.858 86.438 214.615 86.59 212.295 84.625C212.057 84.093 212.036 83.577 212.244 83.166C212.244 83.151 212.263 83.136 212.271 83.119H212.285C212.315 83.061 212.349 83.004 212.386 82.95C212.553 82.751 212.774 82.606 213.022 82.531C213.561 82.478 214.305 82.869 215.027 83.261C215.796 83.672 216.586 84.093 217.313 84.093C217.478 84.094 217.642 84.07 217.8 84.022C218.211 83.884 218.554 83.592 218.757 83.208V83.23C219.375 83.148 219.968 82.933 220.496 82.602C220.479 82.808 220.466 83.038 220.459 83.307ZM220.591 78.365C220.821 78.614 220.985 78.916 221.068 79.244C221.151 79.573 221.15 79.917 221.066 80.245C221.029 80.414 220.992 80.556 220.955 80.693C220.955 80.725 220.943 80.759 220.938 80.793C220.894 80.948 220.851 81.088 220.811 81.22C220.606 81.707 220.143 82.211 219.039 82.471C219.111 81.972 219.001 81.464 218.728 81.039C218.359 80.426 217.714 79.871 217.015 79.432C217.834 79.491 218.441 79.513 218.654 79.513H218.725L218.992 79.494L219.379 77.447C219.836 77.676 220.247 77.987 220.591 78.365Z" fill="#2A2A2B"/>
<path d="M200.804 188.471V188.422L200.296 186.645C200.332 186.45 200.296 186.097 199.945 185.433L199.93 185.382H199.918C199.852 185.255 199.776 185.118 199.686 184.968C199.243 184.224 195.136 177.754 187.545 179.534C181.307 180.998 179.581 178.77 178.438 177.295C178.203 176.962 177.93 176.657 177.625 176.388L155.007 105.718C156.409 105.686 157.809 105.58 159.2 105.4C159.21 107.324 159.218 109.15 159.218 110.923H159.911C159.911 109.118 159.911 107.26 159.893 105.298C161.147 105.108 162.38 104.795 163.573 104.363L160.243 114.864L160.904 115.072L167.939 92.85H168.468L168.571 92.747C168.644 92.674 168.678 92.64 170.059 86.985C170.816 83.893 171.957 79.135 173.102 74.033C174.369 68.397 175.358 63.632 176.069 59.737L175.67 59.975L175.271 60.213L160.917 68.79C154.831 72.171 150.219 73.849 146.978 73.849C145.599 73.849 144.466 73.546 143.578 72.941C139.989 70.51 140.844 63.811 141.671 57.326C142.022 54.572 142.347 51.971 142.347 49.733H143.04C143.04 52.015 142.702 54.636 142.352 57.414C141.552 63.688 140.724 70.175 143.96 72.366C146.712 74.226 152.143 72.865 160.564 68.188L175.139 59.48L175.43 59.311L175.457 59.295L175.829 59.074L176.226 58.835L177.056 58.34L177.459 58.098L177.861 57.858L179.264 57.021L179.567 56.84L179.87 56.658L185.762 53.138L183.356 48.718L183.545 49.025L183.741 48.901L184.036 48.715L184.117 48.664L191.622 43.931L191.647 43.914C192.869 42.994 194.036 42.005 195.143 40.95L199.121 41.821H199.148L199.361 41.837C199.842 41.876 200.099 41.895 200.173 41.895C202.012 41.895 202.332 40.204 202.503 39.298L204.822 22.537C204.859 22.155 204.903 21.8 204.942 21.47C205.111 20.067 205.23 19.054 204.68 18.366C204.297 17.887 203.637 17.622 202.543 17.51L194.335 16.171C192.633 15.965 191.901 17.661 191.753 18.586C191.753 18.595 191.753 18.605 191.753 18.614L190.332 27.621C188.212 27.604 185.26 28.804 184.571 30.892C183.846 33.114 183.714 34.228 183.708 36.512L179.312 39.815L179.236 39.873L178.955 40.083L178.751 40.236L178.735 40.208L176.663 41.56L176.36 41.76L176.056 41.958L172.725 44.135L172.411 44.341L158.04 53.745C157.993 53.796 157.929 53.828 157.861 53.836L155.964 54.274L157.473 53.287V53.295L157.758 53.14C158.878 52.519 159.575 52.047 160.045 51.601L175.888 41.241L176.187 41.045L176.485 40.85C175.78 38.287 174.686 36.679 173.21 36.054C170.755 35.012 167.898 36.913 166.133 38.383C166.175 38.214 166.216 38.054 166.258 37.888C166.818 35.658 167.349 33.543 167.423 32.495L167.68 32.404C169.283 31.835 174.157 30.108 174.089 26.615C173.968 20.214 172.034 15.404 169.477 12.665C171.782 10.751 173.345 8.587 172.899 6.355C172.586 4.797 171.626 3.84 170.121 3.584C166.432 2.961 159.839 6.856 157.293 11.165C156.192 13.025 155.637 17.769 157.453 19.208C157.313 20.265 157.23 21.329 157.203 22.395C157.09 26.547 156.843 30.153 156.567 32.04C155.833 31.651 155.038 31.389 154.216 31.266C150.053 30.635 145.931 33.475 142.665 39.029C142.645 38.989 142.621 38.948 142.597 38.906C141.634 37.237 137.694 34.143 132.526 34.143H132.443C128.736 34.167 123.363 35.893 118.82 43.986C118.629 44.324 117.467 46.133 115.868 48.62C115.582 48.549 115.361 48.478 115.178 48.419C114.25 48.115 114.04 48.279 113.288 49.336C111.935 51.227 109.768 55.136 109.677 55.302L109.614 55.414L109.639 55.54C109.729 55.975 110.238 56.027 110.73 56.078C110.809 56.086 110.918 56.097 111.022 56.112C107.311 61.847 103.678 67.468 103.053 68.538C100.107 73.585 100.621 76.665 101.57 78.361C102.701 80.39 105.039 81.534 108.152 81.604L125.782 81.998C124.073 86.923 122.942 90.684 122.972 91.973V92.311L125.253 92.338C122.526 103.682 127.861 113.654 130.616 118.682L112.503 171.092C111.979 172.218 110.632 174.23 109.207 176.361C107.115 179.483 105.604 181.793 105.092 183.142C104.78 183.136 104.474 183.23 104.219 183.411C103.269 184.056 102.669 185.777 102.934 187.105C103.103 187.96 103.611 188.515 104.365 188.667C104.854 188.775 105.352 188.845 105.852 188.875C105.808 189.213 105.852 189.69 106.065 190.385C106.294 191.113 107.6 191.369 110.424 191.23C110.179 192.178 110.267 192.921 110.683 193.458C111.536 194.544 113.449 194.363 114.591 194.255L114.906 194.227C114.651 195.379 114.771 196.204 115.266 196.741C116.138 197.688 117.903 197.354 119.07 197.134C119.288 197.093 119.537 197.046 119.726 197.02C119.251 198.204 119.597 198.948 119.991 199.364C120.862 200.285 122.653 200.361 123.298 200.096C124.191 199.727 124.517 199.682 124.637 199.688C124.634 199.789 124.624 199.889 124.607 199.988C124.546 200.425 124.438 201.161 125.192 201.541C126.287 202.098 127.309 202.373 128.235 202.373C128.864 202.38 129.485 202.237 130.048 201.955C130.61 201.673 131.097 201.261 131.468 200.753C131.779 201.234 132.263 201.575 132.82 201.705C133.519 201.872 134.25 201.851 134.938 201.646C135.627 201.441 136.25 201.059 136.744 200.537C137.566 199.624 137.748 198.403 137.267 197.091C137.679 194.589 137.343 192.559 136.266 191.057C134.585 188.712 131.545 188.229 129.911 187.97C129.606 187.932 129.304 187.873 129.008 187.791C127.643 186.195 126.336 182.149 127.681 178.066L127.777 177.774L127.062 177.436L142.873 142.961L161.808 180.697C161.54 181.252 161.905 181.923 162.238 182.413C163.083 184.848 163.555 187.384 163.969 189.625C164.422 192.075 164.814 194.204 165.589 195.457C165.251 196.346 165.533 198.623 165.798 199.568C165.993 200.245 166.219 200.583 166.537 200.66C166.724 200.702 166.915 200.723 167.107 200.723C168.24 200.723 168.982 199.942 169.45 199.448C169.574 199.308 169.709 199.179 169.854 199.061C169.933 199.189 169.994 199.327 170.033 199.472C170.082 199.642 170.174 199.797 170.3 199.921C170.426 200.046 170.581 200.136 170.752 200.184C171.734 200.463 173.161 199.507 173.457 199.247C173.982 198.836 174.412 198.317 174.72 197.725L174.889 197.867C175.591 198.481 176.309 198.713 177.023 198.571C178.169 198.336 178.98 197.168 179.427 196.326C179.615 196.453 179.786 196.606 179.934 196.779C180.404 197.286 180.653 197.306 182.582 196.948C184.541 196.589 185.493 195.257 185.917 194.628C186.209 194.887 186.552 195.083 186.924 195.203C187.295 195.323 187.688 195.364 188.076 195.325C189.157 195.252 190.135 194.708 190.57 193.94C190.768 193.588 190.908 193.33 190.996 193.142C192.714 193.818 193.015 193.703 194.704 192.728C195.272 192.4 195.656 191.742 195.887 191.281C196.592 191.734 197.887 191.759 198.327 191.649C199.038 191.478 199.671 191.071 200.121 190.493C200.571 189.916 200.812 189.203 200.804 188.471ZM179.29 40.706L179.571 40.497L179.647 40.439L184.409 36.869V36.7C184.409 34.38 184.522 33.308 185.238 31.12C185.792 29.43 188.379 28.353 190.23 28.326C190.35 28.326 190.465 28.326 190.578 28.334C190.656 28.334 190.732 28.341 190.807 28.354C190.731 28.486 190.624 28.652 190.499 28.838C190.374 29.024 190.212 29.262 190.044 29.499C189.272 30.593 188.254 31.932 188.075 32.148L187.288 33.1L188.457 32.696C188.769 32.588 189.001 32.3 189.187 32.07C189.251 31.991 189.312 31.915 189.356 31.864C189.478 31.744 189.603 31.604 189.73 31.455C189.857 31.306 190.019 31.105 190.168 30.909C190.316 30.713 190.465 30.507 190.617 30.287C191.444 29.103 192.323 27.592 193.131 26.207C194.031 24.67 195.148 22.757 195.498 22.594C195.926 22.447 196.487 22.325 196.736 22.594C197.037 22.912 196.984 23.79 196.623 24.931C196.318 25.284 195.911 26.079 195.29 27.298C194.552 28.758 193.54 30.759 192.976 31.075L193.314 31.68C194.009 31.291 194.827 29.748 195.907 27.611C196.131 27.169 196.357 26.721 196.562 26.339L196.754 26.43L196.912 26.141C198.384 23.428 199.279 22.909 199.766 22.953C199.845 22.949 199.925 22.967 199.995 23.004C200.066 23.042 200.125 23.098 200.166 23.166C200.633 24.011 199.235 26.785 198.645 27.972C198.418 28.424 198.251 28.755 198.183 28.95C197.363 30.581 195.71 33.724 195.371 34.022C195.401 34.001 195.434 33.986 195.47 33.978L195.627 34.654C195.796 34.615 195.953 34.576 196.912 32.855L196.646 33.67L198.812 29.242C199.476 27.889 199.84 27.695 199.913 27.67C200.094 27.839 200.307 28.975 199.833 31.453C199.284 34.328 198.142 37.024 194.93 40.208C194.834 40.304 194.736 40.4 194.634 40.497L194.33 40.786C193.346 41.698 192.317 42.559 191.246 43.368L183.79 48.063L183.774 48.073L183.07 46.931L179.814 41.677L179.241 40.749L179.29 40.706ZM196.068 20.418C195.96 20.633 195.706 20.965 195.481 21.01C194.528 21.205 194.961 20.111 195.077 19.773C195.5 18.557 196.655 19.243 196.068 20.423V20.418ZM196.119 190.557L196 190.232L195.676 190.349C195.527 190.401 195.481 190.508 195.402 190.687C195.262 191 194.895 191.832 194.364 192.134C192.797 193.039 192.726 193.081 191.221 192.488C191.203 192.419 191.164 192.357 191.11 192.311C191.056 192.265 190.989 192.236 190.918 192.229C190.835 192.222 190.752 192.244 190.683 192.291C190.614 192.339 190.564 192.409 190.541 192.489C190.376 192.873 190.186 193.246 189.973 193.605C189.655 194.167 188.878 194.583 188.036 194.64C187.26 194.692 186.592 194.427 186.201 193.911C186.166 193.864 186.119 193.825 186.066 193.8C186.012 193.774 185.953 193.762 185.894 193.764C185.672 193.764 185.555 193.933 185.386 194.195C184.999 194.767 184.194 195.955 182.467 196.271C180.739 196.588 180.675 196.549 180.456 196.31C180.173 195.993 179.835 195.729 179.459 195.531L179.302 195.445L179.133 195.523C179.045 195.567 178.977 195.644 178.943 195.737C178.355 196.958 177.603 197.744 176.879 197.891C176.389 197.993 175.865 197.808 175.34 197.345C174.987 197.037 174.808 196.883 174.554 196.933C174.301 196.982 174.216 197.168 174.13 197.354C173.863 197.886 173.48 198.352 173.009 198.718C172.59 199.07 171.477 199.671 170.936 199.516C170.874 199.501 170.818 199.468 170.774 199.423C170.73 199.377 170.699 199.319 170.686 199.257C170.558 198.862 170.375 198.447 170.001 198.361C169.628 198.275 169.296 198.596 168.941 198.97C168.419 199.521 167.768 200.202 166.711 199.984C166.351 199.634 166.023 197.171 166.121 196.113C166.128 195.984 166.154 195.857 166.197 195.736H166.219L166.605 195.626L199.448 186.242L199.534 186.538L199.64 186.903L199.744 187.262L200.11 188.525C200.105 189.092 199.91 189.642 199.557 190.086C199.204 190.53 198.713 190.843 198.161 190.976C197.579 191.128 196.24 190.899 196.119 190.562V190.557ZM173.295 177.333C173.269 173.527 173.266 168.915 173.295 165.18L176.872 176.357L173.295 177.333ZM172.603 177.52L171.278 177.882C169.442 177.257 166.924 177.417 164.806 177.554C164.086 177.6 163.401 177.644 162.801 177.654C162.228 175.554 162.255 171.388 162.309 166.925C163.381 166.996 164.485 167.094 165.58 167.184C167.707 167.366 169.907 167.554 171.731 167.554V166.861C169.935 166.861 167.842 166.681 165.644 166.494C164.534 166.399 163.411 166.303 162.322 166.232C162.376 161.697 162.424 157.04 161.857 154.076C163.21 154.123 164.562 154.159 166.006 154.159C167.19 154.159 168.426 154.135 169.753 154.079L172.637 163.09C172.571 167.138 172.571 172.944 172.602 177.525L172.603 177.52ZM132.766 133.806C132.56 131.651 132.399 129.945 132.357 129.311C133.491 129.377 134.764 129.444 136.125 129.512L141.41 140.045C138.367 139.896 135.644 139.751 133.307 139.612C133.135 137.72 132.952 135.766 132.766 133.806ZM132.041 108.839C132.058 107.473 132.073 106.079 132.086 104.658C135.326 104.688 138.831 104.943 142.269 105.194L145.03 105.391C145.083 108.287 145.16 111.417 145.258 114.414C145.277 114.974 145.297 115.566 145.319 116.183C140.301 115.914 135.067 116.247 131.983 117.704C131.97 114.736 132.004 111.824 132.041 108.839ZM132.107 100.593C132.107 99.809 132.157 99.046 132.208 98.309C132.283 97.21 132.343 96.299 132.208 95.635C132.754 95.68 133.302 95.69 133.85 95.665C137.738 95.423 141.397 95.418 145.027 95.508C144.971 96.113 144.934 97.575 144.966 101.297C144.976 102.367 144.991 103.508 145.01 104.695L142.305 104.502C138.854 104.25 135.339 103.995 132.078 103.963C132.097 102.86 132.107 101.737 132.107 100.593ZM145.382 95.594L145.394 95.516H145.646C145.61 95.547 145.567 95.57 145.522 95.583C145.477 95.596 145.429 95.6 145.382 95.594ZM146.007 129.223C142.768 129.106 139.475 128.969 136.567 128.831L132.279 120.306C132.196 120.137 132.11 119.96 132.002 119.77C132.002 119.341 131.992 118.913 131.988 118.487C134.879 116.966 140.23 116.628 145.345 116.901C145.488 120.741 145.703 125.392 146.001 129.223H146.007ZM132.026 121.341L135.764 128.792C134.518 128.731 133.356 128.668 132.313 128.609C132.164 126.08 132.075 123.676 132.026 121.341ZM136.928 129.549C139.767 129.685 142.942 129.816 146.058 129.928C146.312 132.983 146.624 135.418 147.001 136.332C147.237 136.9 147.34 138.545 147.411 140.324L145.72 140.248C144.505 140.194 143.331 140.137 142.198 140.079L136.928 129.549ZM159.719 132.855C159.8 135.221 159.898 138.014 160.023 140.813C156.877 140.711 152.713 140.554 148.105 140.354C148.036 138.457 147.92 136.738 147.642 136.067C147.329 135.308 147.029 133.193 146.756 129.952C151.636 130.121 156.315 130.236 159.299 130.236H159.626C159.654 131.029 159.687 131.921 159.719 132.855ZM147.434 141.029C147.451 141.597 147.465 142.167 147.478 142.708C147.551 145.629 147.597 146.458 147.783 146.732L148.357 146.341L148.371 146.366C148.256 146.089 148.212 144.283 148.171 142.691C148.158 142.155 148.144 141.604 148.129 141.059C152.564 141.254 156.804 141.414 160.055 141.516C160.27 146.153 160.562 150.722 161.01 153.351L159.235 153.276C156.97 153.178 154.625 153.077 151.975 153.077V153.77C154.611 153.77 156.946 153.871 159.205 153.968L161.141 154.049C161.726 156.923 161.678 161.618 161.624 166.189C159.205 166.053 156.993 166.066 155.467 166.511L142.567 140.797C144.183 140.882 145.818 140.958 147.434 141.029ZM161.719 153.383C161.269 150.823 160.968 146.224 160.75 141.538C162.725 141.595 164.273 141.629 165.193 141.629C165.423 141.629 165.612 141.629 165.759 141.629L169.528 153.405C166.623 153.516 164.148 153.472 161.719 153.383ZM160.718 140.835C160.591 138.023 160.495 135.215 160.412 132.831C160.376 131.816 160.346 130.951 160.319 130.231C161.103 130.222 161.71 130.2 162.094 130.166L165.541 140.941C164.797 140.946 163.093 140.909 160.718 140.835ZM161.878 129.49C161.512 129.517 160.975 129.532 160.292 129.539C160.224 127.827 160.179 127.096 160.123 126.903L159.462 127.111C159.504 127.28 159.553 128.214 159.605 129.543C156.669 129.543 151.795 129.424 146.706 129.247C146.455 126.068 146.232 121.909 146.048 116.935C149.767 117.179 153.281 117.737 155.563 118.384L155.752 117.718C153.374 117.042 149.789 116.469 146.021 116.223C146.004 115.748 145.987 115.268 145.972 114.78C145.859 111.414 145.781 108.223 145.732 105.437C148.339 105.606 150.926 105.745 153.379 105.745C153.683 105.745 153.982 105.745 154.282 105.745L161.878 129.49ZM154.777 105.036L154.238 103.346L153.578 103.569L154.055 105.057C151.404 105.085 148.572 104.942 145.713 104.751C145.632 99.863 145.644 96.348 145.713 95.535C147.911 95.596 150.109 95.69 152.341 95.787C154.572 95.883 156.841 95.979 159.171 96.044C159.152 98.854 159.171 101.814 159.181 104.717C157.721 104.907 156.251 105.013 154.779 105.036H154.777ZM163.834 103.515C162.563 104.033 161.236 104.399 159.879 104.604C159.864 101.74 159.851 98.823 159.869 96.055C161.347 96.091 162.848 96.115 164.378 96.115V95.421C162.857 95.421 161.352 95.398 159.874 95.361C159.874 94.473 159.893 93.602 159.908 92.754L167.213 92.842L163.834 103.515ZM108.167 80.914C105.31 80.851 103.181 79.825 102.175 78.025C100.941 75.827 101.452 72.662 103.651 68.895C104.272 67.833 107.928 62.178 111.65 56.425L111.927 55.997L112.348 55.348C113.082 54.211 113.809 53.091 114.498 52.022C114.683 52.022 114.872 52.031 115.073 52.031C116.534 52.031 118.444 51.916 120.448 51.794C122.516 51.67 124.654 51.542 126.345 51.542H127.292C129.791 51.542 134.345 51.53 137.267 51.711L137.628 51.735L137.875 51.753C136.589 55.197 135.17 58.955 133.764 62.602C133.425 63.486 133.087 64.364 132.749 65.228C130.889 70.05 129.129 74.483 127.877 77.489L127.758 77.516L127.539 77.57L127.378 77.607L127.305 77.752V77.768C126.044 80.304 125.865 81.039 125.905 81.318L108.167 80.914ZM116.59 48.791C118.128 46.404 119.232 44.679 119.423 44.338C123.804 36.536 128.925 34.87 132.441 34.848H132.533C137.361 34.848 141.138 37.766 142 39.264C142.212 39.629 142.208 39.827 142.17 39.888L142.139 39.952C142.137 39.961 142.134 39.97 142.131 39.978C141.887 40.701 141.571 41.609 141.196 42.664C140.396 44.903 139.324 47.834 138.112 51.069L137.879 51.05L137.517 51.023C134.616 50.828 130.031 50.837 127.28 50.842H126.345C124.634 50.842 122.485 50.97 120.407 51.096C118.329 51.221 116.395 51.339 114.95 51.327L116.302 49.221L116.586 48.781L116.59 48.791ZM137.339 76.461C135.096 77.967 131.569 79.883 127.195 80.763L126.937 80.814L126.768 80.846L126.664 80.868C127.014 79.959 127.409 79.067 127.848 78.197H127.873L127.954 78.178L128.375 78.074C133.566 76.74 137.902 74.029 140.692 70.374C140.99 71.184 141.328 71.979 141.706 72.755C141.324 73.255 139.779 74.827 137.339 76.461ZM170.005 4.269C171.219 4.475 171.964 5.224 172.219 6.494C172.607 8.427 171.136 10.383 168.978 12.173L168.696 12.401C168.607 12.474 168.514 12.547 168.421 12.618C165.398 14.956 161.32 16.946 158.987 18.087L158.275 18.437L157.898 18.623L157.856 18.645C157.755 18.559 157.665 18.461 157.587 18.354C156.508 16.88 157.01 13.01 157.889 11.52C160.109 7.764 165.768 4.212 169.274 4.212C169.519 4.21 169.763 4.23 170.005 4.269ZM157.524 29.629C157.693 27.651 157.825 25.024 157.896 22.424C157.923 21.373 158.006 20.324 158.145 19.282C158.466 19.113 158.851 18.932 159.291 18.718C161.849 17.468 165.896 15.492 168.928 13.123C169.44 13.672 169.902 14.267 170.306 14.9C171.658 16.995 173.285 20.731 173.396 26.643C173.454 29.636 168.935 31.239 167.448 31.764C166.889 31.964 166.738 32.016 166.738 32.285C166.738 33.144 166.152 35.479 165.585 37.734C165.46 38.241 165.335 38.728 165.218 39.202C165.093 39.317 164.978 39.423 164.88 39.515C164.737 39.648 164.588 39.787 164.542 39.815C164.385 39.924 163.712 39.829 163.144 39.731C163.126 39.656 163.104 39.582 163.078 39.509C163.032 39.391 162.97 39.227 161.277 38.302L160.988 38.145L160.98 38.159C160.439 35.697 159.068 33.65 157.2 32.426C157.309 31.792 157.418 30.899 157.524 29.622V29.629ZM159.257 47.315C159.803 45.456 160.39 43.466 160.779 41.817C160.807 41.702 160.833 41.589 160.858 41.479C160.884 41.369 160.912 41.239 160.938 41.122C161.014 40.767 161.078 40.434 161.127 40.132C161.147 40.012 161.164 39.897 161.178 39.785C161.191 39.673 161.206 39.55 161.217 39.447C161.227 39.344 161.235 39.193 161.237 39.08C161.406 39.178 161.585 39.278 161.744 39.374L162.016 39.543C162.165 39.631 162.31 39.726 162.449 39.829C162.464 39.876 162.477 39.927 162.49 39.981C162.517 40.101 162.536 40.222 162.547 40.345C162.583 40.833 162.575 41.324 162.524 41.81C162.512 41.927 162.5 42.045 162.486 42.167C162.473 42.289 162.459 42.395 162.444 42.505C162.192 44.404 161.599 46.708 161.058 48.027C160.855 48.516 160.72 48.92 160.584 49.276C160.167 50.443 159.982 50.967 158.662 51.812C158.447 51.953 158.204 52.102 157.923 52.264C158.087 51.29 158.726 49.119 159.257 47.308V47.315ZM110.799 55.385C110.699 55.375 110.561 55.359 110.446 55.341C110.987 54.381 112.737 51.3 113.853 49.735C114.11 49.373 114.36 49.043 114.488 48.975C114.553 48.945 114.669 48.975 114.963 49.075C115.1 49.119 115.268 49.173 115.471 49.231L111.428 55.486C111.222 55.435 111.011 55.401 110.799 55.385ZM125.971 92.339L159.217 92.749C159.2 93.594 159.19 94.461 159.183 95.345C156.861 95.279 154.598 95.176 152.378 95.088C146.193 94.823 140.352 94.571 133.816 94.975C133.188 95.003 132.559 94.985 131.934 94.921C131.865 94.826 131.781 94.743 131.686 94.676C131.31 94.414 130.791 94.431 130.107 94.72L129.845 94.688C128.729 94.524 127.604 94.426 126.477 94.392V95.085C127.576 95.119 128.672 95.216 129.76 95.376C130.337 95.447 130.922 95.518 131.49 95.575C131.659 96.132 131.588 97.212 131.517 98.265C131.468 98.98 131.414 99.787 131.414 100.597C131.414 101.74 131.408 102.862 131.398 103.964C129.506 103.947 127.614 104.064 125.738 104.314C125.043 100.639 124.925 96.585 125.971 92.344V92.339ZM125.875 104.987C127.704 104.747 129.548 104.634 131.393 104.649C131.382 106.069 131.367 107.461 131.348 108.825C131.309 111.936 131.273 114.967 131.292 118.07C131.239 118.102 131.187 118.134 131.136 118.168C129.51 115.199 127.052 110.565 125.875 104.992V104.987ZM131.074 119.497L131.309 119.933C131.348 122.695 131.439 125.539 131.618 128.555C130.044 128.459 128.796 128.369 128.032 128.29L131.074 119.497ZM127.801 128.964C128.583 129.052 129.933 129.152 131.659 129.259V129.318C131.698 129.942 131.853 131.587 132.07 133.861C132.22 135.446 132.408 137.431 132.602 139.558C128.387 139.299 125.528 139.068 124.369 138.882L127.801 128.964ZM124.144 139.545C125.366 139.754 128.558 140.004 132.671 140.256C133.067 144.652 133.468 149.513 133.598 152.683C130.132 152.206 125.395 151.727 122.238 151.678C121.998 149.917 121.672 148.593 121.239 147.947L124.144 139.545ZM120.931 148.843C121.185 149.477 121.391 150.454 121.555 151.678C121.01 151.676 120.464 151.704 119.922 151.763L120.931 148.843ZM119.665 152.505C120.318 152.398 120.98 152.352 121.641 152.368C122.008 155.581 122.127 160.184 122.09 164.71C119.396 164.5 116.551 164.265 115.665 164.091L119.665 152.505ZM115.438 164.737C116.135 164.906 117.805 165.063 122.083 165.397C122.04 168.905 121.905 172.318 121.719 174.95L113.266 171.032L115.438 164.737ZM133.021 201.026C132.589 200.909 132.046 200.627 131.907 199.954L131.836 199.605L131.49 199.687C131.341 199.72 131.277 199.82 131.189 199.957C129.96 201.876 128.053 202.197 125.522 200.912C125.244 200.77 125.244 200.549 125.31 200.067C125.358 199.729 125.41 199.352 125.109 199.117C124.975 199.02 124.812 198.972 124.647 198.98C124.309 198.98 123.802 199.127 123.052 199.436C122.681 199.59 121.18 199.575 120.516 198.87C120.117 198.449 120.11 197.829 120.494 197.026C120.541 196.943 120.564 196.849 120.559 196.754C120.554 196.659 120.521 196.568 120.465 196.491C120.237 196.194 119.789 196.28 118.962 196.435C117.947 196.627 116.407 196.917 115.797 196.255C115.427 195.856 115.391 195.1 115.69 194.011C115.707 193.951 115.709 193.888 115.696 193.828C115.683 193.767 115.655 193.711 115.616 193.663C115.447 193.463 115.202 193.494 114.547 193.548C113.611 193.636 111.868 193.8 111.249 193.012C110.941 192.621 110.911 191.997 111.183 191.152L111.317 191.123L111.276 190.804C111.234 190.481 110.953 190.496 110.657 190.513C106.965 190.721 106.755 190.19 106.748 190.175C106.402 189.069 106.613 188.78 106.61 188.78L106.862 188.611L106.596 188.072L106.309 188.163C106.309 188.163 105.93 188.275 104.523 187.994C104.05 187.898 103.751 187.554 103.634 186.98C103.425 185.935 103.908 184.484 104.628 183.996C104.718 183.933 104.819 183.888 104.926 183.862C105.04 183.836 105.16 183.839 105.272 183.872C105.367 183.899 105.456 183.941 105.538 183.996C105.646 184.065 105.759 184.134 105.876 184.203C106.66 184.672 107.621 185.127 108.63 185.603C110.182 186.337 111.942 187.169 113.533 188.268C114.532 188.959 115.635 189.803 116.801 190.696C118.431 191.943 120.221 193.313 122.068 194.511C124.068 195.808 126.135 196.902 128.142 197.423C128.914 197.631 129.709 197.741 130.509 197.749C130.722 197.749 131.141 197.776 131.628 197.807C133.032 197.898 134.164 197.947 135.033 197.927C135.803 197.908 136.372 197.834 136.751 197.683C137.001 198.616 136.832 199.44 136.254 200.084C135.481 200.914 134.095 201.328 133.013 201.034L133.021 201.026ZM126.446 177.148L122.389 175.27C122.587 172.612 122.737 169.096 122.783 165.464L123.303 165.505C126.629 165.76 130.053 166.024 131.434 166.255L126.446 177.148ZM131.738 165.601C130.424 165.353 126.987 165.094 123.363 164.81L122.796 164.766C122.837 160.284 122.717 155.699 122.33 152.382C125.429 152.441 130.174 152.908 133.627 153.396C133.669 154.799 133.642 155.763 133.515 156.051L134.147 156.336C134.301 155.998 134.349 154.984 134.316 153.493C135.463 153.662 136.425 153.831 137.074 153.974L131.738 165.601ZM137.365 153.323C136.707 153.171 135.62 152.985 134.293 152.793C134.186 149.815 133.824 145.303 133.375 140.31C135.934 140.464 138.814 140.618 141.776 140.765L142.479 142.167L137.365 153.323ZM155.793 167.146C157.228 166.761 159.325 166.756 161.626 166.888C161.568 171.601 161.54 175.995 162.223 178.115L162.561 178.009V178.347C163.237 178.347 164.032 178.296 164.87 178.242C166.492 178.139 168.36 178.019 169.908 178.256L162.403 180.298L155.793 167.146Z" fill="#2A2A2B"/>
<path d="M213.367 65.084C213.675 62.394 212.892 60.212 211.222 59.096C210.551 58.656 209.772 58.41 208.97 58.386C208.169 58.362 207.376 58.56 206.681 58.959C205.189 59.789 204.109 60.068 203.468 59.789C202.802 59.498 202.581 58.606 202.346 57.645C202.092 56.617 201.83 55.554 200.922 55.173C200.131 54.844 199.039 55.119 197.482 56.042C196.934 56.369 196.525 56.484 196.266 56.381C195.918 56.247 195.733 55.664 195.537 55.045C195.179 53.909 194.692 52.353 192.638 52.791C191.858 52.96 191.324 52.938 191.049 52.736C190.773 52.533 190.71 52.036 190.656 51.479C190.587 50.712 190.501 49.758 189.578 49.281L189.26 49.897C189.804 50.179 189.891 50.707 189.967 51.542C190.026 52.205 190.088 52.894 190.643 53.293C191.098 53.632 191.779 53.684 192.788 53.463C194.151 53.172 194.479 53.951 194.881 55.248C195.118 55.995 195.362 56.769 196.024 57.021C196.503 57.204 197.081 57.079 197.842 56.627C199.155 55.846 200.106 55.569 200.658 55.802C201.245 56.048 201.455 56.898 201.673 57.799C201.926 58.824 202.212 59.985 203.194 60.413C204.067 60.793 205.282 60.519 207.019 59.554C207.603 59.218 208.269 59.049 208.943 59.068C209.617 59.087 210.273 59.292 210.838 59.66C212.285 60.628 212.956 62.572 212.679 64.995L213.367 65.084Z" fill="#2A2A2B"/>
<path d="M216.168 64.743L216.862 64.728C216.806 62.276 215.847 58.733 213.325 56.81C211.847 55.684 210.041 55.346 208.104 55.835L208.058 55.85C205.487 56.895 205.015 56.019 204.3 54.695C203.566 53.334 202.652 51.642 199.157 52.083L199.243 52.771C202.269 52.389 202.99 53.73 203.69 55.025C204.417 56.377 205.167 57.764 208.297 56.501C210.036 56.07 211.588 56.359 212.905 57.363C215.083 59.02 216.113 62.264 216.168 64.743Z" fill="#2A2A2B"/>
<path d="M239.989 32.068C236.131 48.438 255.794 59.265 269.239 58.831C282.683 58.397 288.069 43.958 291.072 26.101C294.075 8.24498 281.661 -2.01501 267.072 0.678987C253.402 3.20199 243.848 15.698 239.989 32.068Z" fill="url(#paint1_linear_1_39)"/>
<defs>
<linearGradient id="paint0_linear_1_39" x1="138.811" y1="275.687" x2="35.0742" y2="20.3" gradientUnits="userSpaceOnUse">
<stop stop-color="#FAC7FF"/>
<stop offset="1" stop-color="#FFD2BE"/>
</linearGradient>
<linearGradient id="paint1_linear_1_39" x1="265.33" y1="-21.3202" x2="277.294" y2="57.727" gradientUnits="userSpaceOnUse">
<stop stop-color="#FAC7FF"/>
<stop offset="1" stop-color="#FFD2BE"/>
</linearGradient>
</defs>
</svg>
