<svg width="233" height="235" viewBox="0 0 233 235" fill="none" xmlns="http://www.w3.org/2000/svg">
<path d="M185.19 30.013C181.658 45 199.66 54.912 211.967 54.514C224.275 54.117 229.206 40.899 231.956 24.551C234.705 8.20399 223.34 -1.18832 209.984 1.27728C197.469 3.58768 188.723 15.027 185.19 30.013Z" fill="url(#paint0_linear_1_81)"/>
<path d="M111.323 44.905C53.455 31.477 0.648483 97.554 0.839383 150.047C1.03018 202.54 75.161 187.031 128.159 224.123C174.203 256.348 228.415 204.314 220.3 147.576C212.697 94.411 169.191 58.334 111.323 44.905Z" fill="url(#paint1_linear_1_81)"/>
<path d="M182.693 125.154C183.091 125.157 183.489 125.16 183.886 125.162C183.828 125.23 183.791 125.31 183.791 125.401C183.791 134.564 183.791 143.728 183.791 152.892C183.274 152.892 182.756 152.892 182.239 152.892C182.264 152.843 182.28 152.79 182.28 152.732C182.28 145.913 182.28 139.094 182.28 132.275C182.28 132.153 182.233 132.064 182.158 132C182.483 129.731 182.778 127.41 182.693 125.154ZM190.92 125.313C190.92 134.506 190.92 143.699 190.92 152.892C191.514 152.892 192.108 152.892 192.701 152.892C192.701 143.728 192.701 134.565 192.701 125.401C192.701 125.315 192.735 125.24 192.788 125.174C192.156 125.176 191.525 125.175 190.893 125.176C190.909 125.216 190.92 125.26 190.92 125.313ZM184.98 125.313C184.98 134.506 184.98 143.699 184.98 152.892C185.574 152.892 186.168 152.892 186.761 152.892C186.761 143.728 186.761 134.565 186.761 125.401C186.761 125.315 186.795 125.24 186.848 125.174C186.215 125.172 185.582 125.169 184.949 125.167C184.967 125.21 184.98 125.256 184.98 125.313ZM196.822 125.147C196.828 125.16 196.834 125.172 196.839 125.187C196.856 125.172 196.876 125.16 196.896 125.147C196.872 125.147 196.847 125.147 196.822 125.147ZM187.925 125.177C187.94 125.218 187.95 125.261 187.95 125.313C187.95 134.506 187.95 143.699 187.95 152.892C188.544 152.892 189.138 152.892 189.731 152.892C189.731 143.728 189.731 134.565 189.731 125.401C189.731 125.316 189.764 125.242 189.816 125.177C189.249 125.177 188.682 125.179 188.115 125.178C188.051 125.178 187.988 125.178 187.925 125.177ZM203.542 137.221C203.523 137.223 203.502 137.225 203.487 137.225C203.072 137.226 202.657 137.227 202.242 137.229C202.25 137.258 202.254 137.291 202.254 137.326C202.254 142.462 202.254 147.597 202.254 152.733C202.254 152.791 202.238 152.843 202.212 152.892C202.658 152.892 203.104 152.892 203.551 152.892C203.547 152.869 203.542 152.847 203.542 152.821C203.542 147.621 203.542 142.421 203.542 137.221ZM193.89 125.313C193.89 134.506 193.89 143.699 193.89 152.892C194.484 152.892 195.078 152.892 195.671 152.892C195.671 143.728 195.671 134.565 195.671 125.401C195.671 125.307 195.71 125.225 195.772 125.156C195.135 125.16 194.498 125.167 193.861 125.17C193.879 125.212 193.89 125.258 193.89 125.313ZM173.126 134.532C173.101 134.516 173.082 134.495 173.076 134.465C172.438 131.493 172.178 128.415 172.27 125.38C172.275 125.202 172.529 125.07 172.799 125.003C172.8 125 172.8 124.998 172.801 124.995C172.279 124.982 171.757 124.965 171.236 124.949C171.236 134.21 171.236 143.472 171.236 152.733C171.236 152.791 171.22 152.843 171.194 152.892C171.841 152.892 172.488 152.892 173.135 152.892C173.131 152.869 173.126 152.847 173.126 152.821C173.126 146.725 173.126 140.628 173.126 134.532ZM209.056 124.904C208.419 124.926 207.78 124.938 207.142 124.957C207.208 126.324 207.127 127.715 206.981 129.106C206.802 130.814 206.528 132.521 206.302 134.178C206.285 134.303 206.123 134.393 205.942 134.452C205.763 134.511 205.566 134.539 205.476 134.539C205.223 134.54 204.971 134.542 204.719 134.543C204.706 134.85 204.668 135.16 204.613 135.469C204.686 135.532 204.731 135.622 204.731 135.741C204.731 141.405 204.731 147.069 204.731 152.733C204.731 152.791 204.715 152.843 204.689 152.893C205.121 152.893 205.552 152.893 205.983 152.893C206.363 152.893 206.742 152.893 207.122 152.893C207.599 152.893 208.075 152.893 208.551 152.893C208.948 152.893 209.344 152.893 209.74 152.893C210.364 152.893 210.987 152.893 211.611 152.893C211.611 143.599 211.611 134.306 211.611 125.013C211.611 124.934 211.649 124.864 211.709 124.801C210.825 124.84 209.94 124.874 209.056 124.904ZM175.774 137.234C175.654 137.235 175.534 137.235 175.414 137.235C175.316 137.235 175.115 137.247 175.072 137.124C174.791 136.304 174.669 135.434 174.689 134.571C174.564 134.572 174.439 134.572 174.315 134.573C174.315 140.626 174.315 146.679 174.315 152.733C174.315 152.791 174.298 152.843 174.273 152.892C174.776 152.892 175.279 152.892 175.783 152.892C175.779 152.869 175.774 152.847 175.774 152.821C175.774 147.625 175.774 142.43 175.774 137.234ZM198.359 134.575C198.197 134.576 198.034 134.576 197.872 134.577C197.787 134.578 197.557 134.589 197.53 134.465C197.216 133.001 196.994 131.511 196.86 130.013C196.86 137.64 196.86 145.265 196.86 152.892C197.363 152.892 197.865 152.892 198.368 152.892C198.364 152.869 198.359 152.847 198.359 152.821C198.359 146.739 198.359 140.657 198.359 134.575ZM178.48 137.226C177.975 137.227 177.469 137.229 176.963 137.231C176.963 142.398 176.963 147.565 176.963 152.733C176.963 152.791 176.947 152.843 176.921 152.892C177.444 152.892 177.966 152.892 178.489 152.892C178.485 152.869 178.48 152.847 178.48 152.821C178.48 147.623 178.48 142.424 178.48 137.226ZM181.091 134.534C181.065 134.537 181.039 134.539 181.021 134.539C180.769 134.54 180.517 134.542 180.264 134.543C180.232 135.32 180.022 136.122 179.86 136.863C179.842 136.945 179.767 137.01 179.67 137.063C179.67 142.286 179.67 147.509 179.67 152.733C179.67 152.791 179.653 152.843 179.628 152.892C180.118 152.892 180.609 152.892 181.1 152.892C181.096 152.869 181.091 152.847 181.091 152.821C181.091 146.725 181.091 140.63 181.091 134.534ZM201.118 137.231C200.702 137.233 200.285 137.234 199.869 137.235C199.779 137.235 199.611 137.24 199.548 137.149C199.548 142.344 199.548 147.538 199.548 152.733C199.548 152.791 199.532 152.843 199.506 152.892C200.029 152.892 200.551 152.892 201.074 152.892C201.07 152.869 201.065 152.847 201.065 152.821C201.065 147.686 201.065 142.55 201.065 137.415C201.065 137.347 201.085 137.286 201.118 137.231ZM170.046 124.914C169.816 124.906 169.584 124.902 169.353 124.893C168.941 124.879 168.53 124.863 168.117 124.847H168.096C168.096 134.195 168.096 143.544 168.096 152.892C168.749 152.892 169.402 152.892 170.055 152.892C170.051 152.869 170.046 152.847 170.046 152.821C170.046 143.518 170.046 134.216 170.046 124.914ZM115.871 141.697C115.032 141.954 114.177 142.149 113.309 142.275C114.138 142.266 115.006 142.047 115.871 141.697ZM120.054 130.167C118.766 124.055 118.213 117.246 114.411 112.041C111.29 107.768 106.731 104.882 101.786 102.73C101.887 105.714 102.39 108.735 102.72 111.687C103.397 117.765 104.095 123.841 104.757 129.921C104.909 131.316 105.066 132.714 105.225 134.114C105.242 134.112 105.259 134.109 105.276 134.109C110.748 134.093 115.56 133.326 120.133 130.313C120.095 130.275 120.066 130.227 120.054 130.167ZM105.313 134.891C105.555 137.009 105.797 139.13 106.03 141.255C111.426 142.669 117.176 142.042 121.258 137.965C121.607 137.616 122.603 136.811 122.614 136.303C122.654 134.328 122.455 132.158 121.434 130.422C116.472 133.903 111.25 134.83 105.313 134.891ZM86.162 101.912C86.491 102.387 86.819 102.862 87.148 103.338C87.732 101.623 88.315 99.907 88.898 98.192C88.832 97.206 88.874 96.236 89.01 95.279C87.535 96.477 86.061 97.674 84.586 98.872C84.425 99.003 84.309 99.128 84.222 99.258C84.26 99.271 84.295 99.287 84.319 99.307C85.063 99.919 85.618 101.128 86.162 101.912ZM75.314 103.745C76.147 102.705 76.988 101.672 77.854 100.661C78.306 100.134 78.98 99.093 79.734 98.53C79.638 98.458 79.518 98.377 79.365 98.274C77.183 96.805 75 95.338 72.83 93.853C72.599 95.045 72.325 96.227 72.039 97.387C72.023 97.454 71.98 97.513 71.922 97.565C71.997 97.632 72.045 97.725 72.045 97.852C72.045 99.963 73.836 102.133 75.314 103.745ZM94.986 100.257C94.983 100.243 94.984 100.231 94.983 100.218C93.249 99.666 91.527 99.165 89.855 98.691C89.197 100.626 88.539 102.561 87.881 104.496C87.776 104.804 86.977 105.13 86.749 104.798C86.145 103.921 85.539 103.045 84.931 102.17C84.586 101.674 84.236 100.997 83.828 100.436C83.798 100.558 83.765 100.686 83.725 100.829C83.293 102.357 82.859 103.886 82.412 105.41C82.408 105.437 82.408 105.463 82.404 105.49C81.995 111.533 81.587 117.576 81.178 123.618C81.778 123.623 82.38 123.623 82.983 123.619C81.599 121.718 80.561 119.707 82.544 117.917C83.568 116.993 84.92 116.44 85.865 115.432C87.41 113.784 86.856 111.766 85.981 109.915C85.884 109.711 87.016 109.309 87.154 109.601C87.963 111.312 88.531 113.174 87.364 114.846C86.64 115.882 85.421 116.475 84.417 117.189C82.808 118.334 82.133 120.208 83.216 122.052C83.549 122.618 83.943 123.12 84.349 123.604C85.418 123.584 86.488 123.547 87.557 123.489C87.068 121.924 87.22 120.32 88.64 118.779C89.642 117.694 90.882 116.721 91.555 115.379C92.607 113.281 92.137 111.047 91.335 108.944C91.159 108.483 92.324 108.147 92.508 108.631C93.862 112.176 93.504 115.12 90.819 117.823C89.875 118.773 88.587 119.826 88.418 121.245C88.329 121.995 88.461 122.721 88.721 123.417C91.32 123.234 93.903 122.905 96.433 122.356C96.413 118.293 96.222 114.227 95.966 110.174C95.76 106.9 95.692 103.475 94.986 100.257ZM81.224 105.608C81.486 103.691 80.994 101.701 80.409 99.88C80.351 99.703 80.309 99.558 80.271 99.434C80.012 99.707 79.757 99.985 79.509 100.268C78.973 100.88 78.446 101.499 77.928 102.126C77.208 102.995 76.495 103.87 75.793 104.754C75.552 105.057 75.031 105.117 74.762 104.83C73.141 103.098 71.008 100.683 70.868 98.187C70.76 98.205 70.653 98.226 70.546 98.246C68.163 106.019 66.759 114.024 66.238 122.133C66.712 122.445 67.333 122.634 67.99 122.756C68.205 122.79 68.432 122.825 68.668 122.861C69.401 122.954 70.131 122.993 70.709 123.058C73.461 123.37 76.232 123.534 79 123.589C79.335 123.595 79.671 123.6 80.006 123.606C80.412 117.607 80.818 111.608 81.223 105.61C81.224 105.609 81.224 105.608 81.224 105.608ZM48.64 109.663C43.928 114.562 43.945 121.57 41.427 127.549C41.419 127.567 41.412 127.586 41.404 127.605C41.401 127.611 41.399 127.618 41.396 127.624C41.305 127.838 40.83 127.968 40.513 127.966C40.476 127.997 40.437 128.031 40.395 128.068C39.368 128.968 36.836 131.333 37.399 132.32C37.59 132.655 38.2 133.131 38.984 133.647C39.917 134.26 41.096 134.928 42.121 135.482C43.403 136.174 44.44 136.687 44.44 136.687L54.265 139.042L58.788 140.127C58.81 139.821 58.833 139.514 58.854 139.207C58.871 138.965 58.889 138.723 58.906 138.481C59.044 136.46 59.171 134.438 59.302 132.417C59.317 132.193 59.332 131.97 59.347 131.746C59.61 127.732 59.894 123.72 60.309 119.717C60.751 115.464 61.25 111.182 62.204 107.008C62.743 104.647 63.344 102.054 64.717 99.996C63.259 100.678 60.275 102.096 57.317 103.628C54.27 105.314 50.998 107.211 48.64 109.663Z" fill="#2A2A2B"/>
<path d="M223.656 164.332C223.325 164.332 222.994 164.332 222.663 164.332C222.663 160.58 222.663 156.828 222.663 153.076C222.663 153.032 222.644 152.997 222.611 152.97C222.571 152.923 222.479 152.892 222.307 152.892C220.226 152.892 218.145 152.892 216.064 152.892C216.064 143.494 216.064 134.096 216.064 124.698C216.064 124.602 215.973 124.551 215.843 124.534C216.721 124.473 217.916 124.429 218.578 123.883C218.595 123.869 218.603 123.858 218.607 123.847C218.613 123.841 218.621 123.835 218.627 123.828C219.063 123.289 219.039 122.303 219.086 121.658C219.208 119.973 219.159 118.27 219.125 116.583C219.055 112.977 218.832 109.369 218.896 105.761C218.924 104.208 219.231 102.782 218.462 101.336C217.607 99.728 215.556 99.07 213.913 98.661C212.35 98.273 210.606 98.304 209.008 98.225C196.074 97.581 182.933 97.554 170.002 98.29C168.269 98.389 166.488 98.472 164.832 99.041C163.457 99.514 162.24 100.127 161.28 101.239C160.17 102.525 160.522 104.224 160.58 105.759C160.713 109.313 160.454 112.889 160.369 116.441C160.329 118.07 160.307 119.701 160.365 121.329C160.393 122.123 160.31 123.428 160.847 124.093C161.256 124.597 162.791 124.518 163.347 124.567C163.643 124.593 163.941 124.614 164.237 124.636C164.042 124.721 163.888 124.851 163.888 125.012C163.888 134.305 163.888 143.598 163.888 152.892C161.107 152.892 158.326 152.892 155.545 152.892C155.503 152.892 155.457 152.899 155.41 152.91C155.068 152.87 154.465 153.071 154.465 153.39C154.465 157.037 154.465 160.684 154.465 164.332C138.839 164.332 123.213 164.332 107.587 164.332C107.598 164.3 107.605 164.266 107.605 164.231C107.596 160.421 107.412 156.604 107.127 152.787C110.469 155.594 114.328 157.707 118.8 157.859C122.951 158 126.855 156.124 130.075 153.661C137.981 147.613 142.971 137.882 146.933 128.99C150.37 126.87 153.137 123.503 155.319 120.168C156.596 118.215 159.303 113.778 156.603 111.866C156.56 111.835 156.507 111.816 156.45 111.805C156.522 111.569 156.588 111.33 156.644 111.089C156.86 110.15 156.612 108.844 155.369 109.176C154.81 109.325 154.354 109.748 153.954 110.219C155.011 107.94 155.498 105.802 153.42 106.056C152.345 106.187 151.563 106.824 150.93 107.687C151.833 105.229 152.247 102.892 150.515 102.906C148.581 102.923 147.822 104.701 146.998 106.169C145.912 108.102 145.001 110.186 143.862 112.106C143.835 111.977 143.806 111.851 143.786 111.711C143.45 109.436 143.592 105.78 140.28 106.996C138.055 107.814 137.462 110.631 137.218 112.703C136.938 115.076 136.648 118.247 137.66 120.505C137.666 120.518 137.676 120.528 137.685 120.538C137.548 120.597 137.444 120.674 137.422 120.761C136.7 123.598 135.616 126.249 133.653 128.463C132.231 130.066 130.366 131.19 128.557 132.3C126.709 133.434 125.133 134.661 123.82 136.085C123.986 135.572 123.756 134.501 123.725 134.091C123.595 132.428 123.171 130.796 122.167 129.446C122.041 129.277 121.45 129.415 121.179 129.605C119.874 123.319 119.202 116.621 115.304 111.284C109.637 103.527 98.882 100.292 90.069 97.802C89.968 96.102 90.217 94.401 90.746 92.783C90.764 92.725 90.769 92.674 90.767 92.628C90.966 92.618 91.165 92.608 91.358 92.599C95.488 92.412 100.91 91.476 103.254 87.624C105.358 84.167 105.146 78.501 102.382 75.423C102.373 74.363 102.25 73.342 102.042 72.347C102.816 70.787 102.932 68.756 102.262 67.059C101.508 65.524 100.381 64.452 99.019 64.103C98.889 63.791 98.76 63.479 98.635 63.166C98.622 63.133 98.605 63.104 98.585 63.078C98.851 63.014 99.117 62.945 99.381 62.862C102.735 61.815 104.254 58.312 103.593 54.998C102.404 49.046 93.612 51.684 90.128 54.636C88.149 49.919 81.597 53.794 78.789 55.712C76.392 57.349 73.932 58.758 71.467 60.282C69.151 61.713 67.891 63.616 68.429 66.263C66.444 66.249 64.608 67.094 64.639 69.493C64.671 72.1 65.816 74.949 67.357 77.14C65.07 77.419 63.514 79.367 64.298 82.236C65.115 85.23 69.348 85.186 71.936 84.497C72.49 87.257 72.321 90.087 71.853 92.87C71.794 92.947 71.773 93.03 71.812 93.112C71.553 94.599 71.215 96.072 70.86 97.512C70.845 97.574 70.852 97.625 70.875 97.667C70.674 97.703 70.474 97.743 70.275 97.782C70.12 97.78 69.939 97.814 69.782 97.877C62.383 99.462 55.53 103.68 49.481 108.026C42.982 112.695 43.122 120.785 40.33 127.552C38.699 128.646 36.356 130.379 36.896 132.621C37.222 133.974 38.564 134.886 39.937 135.537C39.798 135.612 39.696 135.714 39.69 135.832C39.25 143.937 33.22 156.087 41.788 161.882C43.714 163.185 45.895 163.955 48.17 164.33C38.218 164.33 28.266 164.33 18.3132 164.33C18.0511 164.33 16.9705 164.835 17.5594 164.835C63.211 164.835 108.862 164.835 154.514 164.835C154.628 164.932 154.924 164.921 155.183 164.835C163.205 164.835 171.225 164.835 179.246 164.835C193.344 164.835 207.441 164.835 221.538 164.835C221.652 164.932 221.948 164.921 222.208 164.835C222.439 164.835 222.671 164.835 222.902 164.835C223.164 164.836 224.245 164.332 223.656 164.332ZM121.188 142.606C122.024 139.919 123.239 137.481 125.239 135.466C126.736 133.959 128.626 132.902 130.417 131.792C134.774 129.095 137.313 125.559 138.583 120.571C138.594 120.527 138.577 120.494 138.543 120.468C138.735 120.383 138.87 120.276 138.833 120.192C138.166 118.705 138.212 116.806 138.21 115.216C138.207 112.904 138.438 110.339 139.637 108.306C140.006 107.679 140.697 106.937 141.555 107.461C141.982 107.721 142.096 108.436 142.196 108.87C142.553 110.427 142.518 112.054 142.888 113.612C142.881 113.621 142.875 113.632 142.868 113.642C142.774 113.773 142.836 113.847 142.967 113.878C143.235 114.653 143.863 115.323 144.234 116.041C144.977 117.481 144.406 119.138 143.842 120.53C143.749 120.758 144.877 120.64 145.002 120.331C145.615 118.816 146.073 117.297 145.407 115.728C144.995 114.756 144.546 114.075 144.21 113.255C145.133 111.884 145.854 110.354 146.617 108.898C146.992 108.182 149.04 103.204 150.176 103.541C152.043 104.094 147.817 112.206 147.28 113.275C147.186 113.464 147.619 113.485 147.989 113.385C148.27 113.399 148.781 113.29 148.903 113.153C149.625 112.342 150.076 111.269 150.582 110.321C150.95 109.631 151.328 108.948 151.729 108.277C151.912 107.973 152.11 107.679 152.313 107.387C152.454 107.185 153.159 106.607 152.84 106.553C155.868 107.067 150.607 114.378 149.918 115.407C149.899 115.435 149.93 115.455 149.99 115.467C150.097 115.503 150.343 115.486 150.573 115.438C150.661 115.42 150.746 115.397 150.822 115.369C150.915 115.337 150.99 115.299 151.028 115.26C151.028 115.26 151.03 115.258 151.031 115.256C151.049 115.24 151.065 115.223 151.077 115.205L151.079 115.202C151.865 114.365 152.521 113.396 153.207 112.479C153.826 111.651 154.48 110.537 155.304 109.794C156.668 111.089 153.275 116.223 152.674 117.138C152.594 117.26 153.644 117.214 153.831 116.929C154.673 115.648 155.496 114.289 156.077 112.849C157.774 114.785 154.985 118.886 153.948 120.47C151.933 123.55 149.237 126.673 146.058 128.6C145.868 128.716 145.812 128.823 145.835 128.913C142.231 137 137.881 145.196 131.443 151.41C128.412 154.335 124.679 156.685 120.405 157.092C115.438 157.564 110.884 154.734 107.349 151.562C107.273 151.493 107.156 151.465 107.026 151.464C106.772 148.299 106.453 145.136 106.109 141.978C108.512 142.494 110.952 142.618 113.308 142.274C114.176 142.148 115.031 141.953 115.87 141.696C117.769 141.114 119.578 140.196 121.22 138.882C121.653 138.536 122.07 138.16 122.465 137.763C121.439 139.216 120.625 140.864 120.025 142.794C119.936 143.084 121.088 142.927 121.188 142.606ZM114.411 112.041C118.213 117.246 118.766 124.056 120.054 130.167C120.066 130.227 120.095 130.275 120.133 130.313C115.56 133.327 110.748 134.093 105.276 134.109C105.259 134.109 105.242 134.112 105.225 134.114C105.066 132.714 104.909 131.316 104.757 129.922C104.094 123.841 103.397 117.765 102.72 111.687C102.39 108.735 101.887 105.714 101.786 102.731C106.73 104.882 111.29 107.768 114.411 112.041ZM122.614 136.302C122.604 136.81 121.608 137.615 121.258 137.964C117.176 142.042 111.426 142.668 106.03 141.255C105.797 139.13 105.554 137.008 105.313 134.89C111.25 134.829 116.472 133.902 121.434 130.421C122.455 132.158 122.654 134.328 122.614 136.302ZM66.238 122.133C66.758 114.025 68.162 106.019 70.546 98.246C70.653 98.226 70.76 98.205 70.867 98.187C71.007 100.684 73.141 103.098 74.762 104.83C75.03 105.117 75.551 105.057 75.792 104.754C76.494 103.871 77.208 102.996 77.927 102.126C78.446 101.5 78.973 100.88 79.509 100.268C79.757 99.985 80.012 99.707 80.271 99.434C80.308 99.559 80.351 99.703 80.408 99.88C80.993 101.702 81.485 103.691 81.224 105.608L81.223 105.61C80.818 111.608 80.412 117.607 80.006 123.606C79.671 123.601 79.335 123.595 79 123.589C76.232 123.534 73.461 123.37 70.709 123.059C70.131 122.993 69.401 122.954 68.668 122.861C68.432 122.825 68.205 122.79 67.99 122.757C67.332 122.634 66.712 122.445 66.238 122.133ZM68.809 77.18C68.799 77.165 68.787 77.149 68.777 77.134C69.041 77.096 69.342 77.144 69.659 77.368C69.651 77.373 69.642 77.377 69.634 77.382C69.356 77.294 69.08 77.225 68.809 77.18ZM81.611 74.007C82.537 76.678 85.514 78.522 88.171 77.17C90.323 76.075 90.979 73.646 90.647 71.421C90.804 71.388 90.943 71.345 91 71.308C91.465 70.991 91.956 70.776 92.518 70.706C92.542 70.703 92.583 70.698 92.628 70.693C93.215 71.721 94.407 72.486 95.266 73.189C95.781 73.612 96.383 74.074 96.701 74.673C97.239 75.683 95.381 75.995 94.777 76.145C94.349 76.251 94.247 76.528 94.381 76.699C92.322 77.267 90.373 78.127 88.324 78.779C85.635 79.634 83.29 79.609 81.396 77.375C80.198 75.961 79.287 74.361 78.136 72.92C79.19 72.919 80.236 72.875 81.315 72.711C81.37 73.152 81.466 73.588 81.611 74.007ZM89.039 70.102C89.84 72.113 89.844 74.478 88.288 76.14C86.276 78.288 83.588 75.643 82.785 73.693C82 71.788 82.446 69.513 83.896 68.06C85.912 66.039 88.113 68.191 89.039 70.102ZM100.908 72.806C100.38 73.911 99.458 74.604 98.017 74.228C97.967 74.214 97.886 74.221 97.793 74.238C97.735 74.119 97.665 73.996 97.569 73.867C96.95 73.036 95.884 72.411 94.99 71.682C95.07 71.621 95.113 71.557 95.085 71.503C94.465 70.305 94.325 69.014 94.604 67.763C94.71 67.746 94.811 67.714 94.886 67.68C95.553 67.371 96.184 67.373 96.89 67.536C97.166 67.6 97.514 67.508 97.72 67.315C97.904 67.143 97.847 66.929 97.601 66.872C96.656 66.653 95.724 66.675 94.826 66.992C94.911 66.763 95.007 66.535 95.12 66.312C95.686 65.193 96.762 64.485 97.91 64.567C99.06 67.29 100.349 69.94 100.908 72.806ZM98.502 79.9C97.464 82.733 93.808 83.719 91.979 81.311C94.306 81.536 96.331 80.865 98.502 79.9ZM87.772 64.16C87.265 64.492 86.7 64.724 86.096 64.876C86.705 64.662 87.276 64.407 87.772 64.16ZM94.986 100.257C95.691 103.474 95.76 106.899 95.967 110.173C96.223 114.227 96.414 118.293 96.433 122.355C93.903 122.905 91.32 123.233 88.721 123.416C88.462 122.72 88.33 121.994 88.419 121.245C88.587 119.826 89.876 118.772 90.819 117.822C93.504 115.12 93.862 112.176 92.509 108.63C92.324 108.147 91.159 108.483 91.335 108.944C92.138 111.046 92.608 113.28 91.555 115.378C90.882 116.72 89.642 117.693 88.641 118.779C87.22 120.319 87.068 121.923 87.557 123.488C86.488 123.547 85.418 123.584 84.349 123.603C83.943 123.119 83.549 122.618 83.216 122.051C82.134 120.208 82.808 118.333 84.418 117.189C85.422 116.475 86.64 115.881 87.364 114.845C88.531 113.174 87.964 111.311 87.154 109.601C87.016 109.308 85.884 109.711 85.981 109.915C86.857 111.765 87.41 113.784 85.866 115.431C84.921 116.439 83.569 116.993 82.544 117.917C80.562 119.706 81.6 121.717 82.983 123.619C82.381 123.622 81.779 123.623 81.178 123.618C81.587 117.576 81.996 111.533 82.405 105.491V105.489C82.408 105.462 82.409 105.436 82.412 105.41C82.86 103.885 83.293 102.357 83.725 100.829C83.766 100.686 83.799 100.557 83.828 100.436C84.236 100.997 84.587 101.673 84.932 102.17C85.539 103.044 86.145 103.921 86.749 104.798C86.977 105.129 87.776 104.803 87.881 104.496C88.539 102.56 89.197 100.625 89.855 98.69C91.527 99.164 93.25 99.665 94.983 100.217C94.984 100.231 94.983 100.243 94.986 100.257ZM88.898 98.191C88.314 99.907 87.731 101.622 87.148 103.338C86.819 102.862 86.491 102.387 86.162 101.912C85.618 101.128 85.062 99.919 84.319 99.307C84.294 99.287 84.26 99.271 84.221 99.259C84.309 99.128 84.424 99.003 84.586 98.872C86.06 97.674 87.535 96.476 89.01 95.279C88.873 96.236 88.832 97.206 88.898 98.191ZM72.039 97.387C72.325 96.227 72.599 95.045 72.83 93.853C75.001 95.338 77.184 96.805 79.366 98.273C79.518 98.376 79.638 98.458 79.734 98.53C78.981 99.093 78.307 100.135 77.855 100.661C76.988 101.672 76.147 102.705 75.314 103.745C73.836 102.134 72.046 99.964 72.046 97.852C72.046 97.725 71.998 97.632 71.923 97.565C71.98 97.512 72.023 97.453 72.039 97.387ZM89.151 94.464C88.998 94.494 88.862 94.54 88.796 94.593C87.028 96.029 85.26 97.465 83.492 98.901C82.991 99.309 82.958 99.594 82.775 100.241C82.598 100.871 82.42 101.499 82.242 102.128C82.1 101.4 81.91 100.678 81.705 99.968C81.522 99.33 81.413 98.413 80.827 98.019C78.223 96.269 75.616 94.522 73.03 92.744C73.381 90.652 73.568 88.535 73.417 86.438C74.244 88.044 75.292 89.505 76.891 90.618C80.29 92.985 85.386 92.883 89.615 92.684C89.423 93.273 89.27 93.867 89.151 94.464ZM101.192 75.575C101.162 75.644 101.158 75.717 101.194 75.79C101.193 76.044 101.188 76.294 101.158 76.549C101.154 76.584 99.474 76.29 99.399 76.277C98.515 76.12 97.593 76.119 96.696 76.223C97.383 75.893 97.939 75.437 97.938 74.81C99.219 74.915 100.272 74.474 101.058 73.713C101.141 74.323 101.19 74.942 101.192 75.575ZM101.087 67.374C101.37 68.092 101.52 69.157 101.474 70.238C100.929 68.539 100.208 66.889 99.492 65.22C100.195 65.777 100.702 66.59 101.087 67.374ZM97.46 63.48C97.529 63.653 97.601 63.826 97.672 63.999C97.146 64.046 96.596 64.188 96.027 64.449C94.118 65.323 93.225 67.423 93.308 69.44C92.948 69.32 92.249 69.583 92.332 69.95C92.364 70.09 92.411 70.224 92.465 70.356C91.806 70.479 91.163 70.7 90.575 71.021C90.488 70.595 90.369 70.179 90.213 69.787C89.011 67.309 86.729 65.643 84.018 67.042C82.12 68.022 81.22 70.039 81.264 72.056C80.004 72.249 78.782 72.243 77.536 72.214C77.472 72.144 77.41 72.072 77.345 72.004C78.098 69.787 78.466 67.415 78.172 65.085C81.908 65.636 86.75 66.382 89.553 63.523C92.196 63.396 94.841 63.693 97.443 63.301C97.431 63.357 97.435 63.417 97.46 63.48ZM66.236 83.088C65.409 82.399 65.257 81.303 65.311 80.3C65.403 78.61 66.495 77.81 67.912 77.885C67.916 77.89 67.92 77.895 67.923 77.899C68.017 78.016 68.257 78.019 68.492 77.961C68.682 78 68.876 78.05 69.073 78.118C69.199 78.161 69.375 78.136 69.541 78.074C70.698 79.8 71.425 81.776 72.202 83.709C70.316 84.395 67.845 84.432 66.236 83.088ZM41.425 160.302C38.191 157.466 38.216 152.905 38.726 148.993C39.297 144.616 40.572 140.355 40.85 135.937C41.254 136.101 41.642 136.245 41.985 136.373C45.771 137.782 50.071 138.664 54.265 139.042L44.441 136.686C44.441 136.686 43.403 136.173 42.122 135.481C40.961 135.036 39.85 134.46 38.984 133.646C38.2 133.131 37.59 132.654 37.399 132.319C36.836 131.332 39.368 128.967 40.395 128.067C40.437 128.03 40.476 127.996 40.513 127.965C40.831 127.968 41.306 127.837 41.396 127.624C41.399 127.617 41.402 127.611 41.404 127.604C41.413 127.585 41.419 127.567 41.428 127.548C43.946 121.569 43.928 114.561 48.64 109.663C50.998 107.211 54.27 105.314 57.319 103.628C57.784 103.37 58.246 103.117 58.697 102.868C60.635 101.799 62.655 100.791 64.74 99.962C64.733 99.973 64.726 99.984 64.718 99.995C63.345 102.053 62.744 104.646 62.205 107.008C61.251 111.182 60.752 115.463 60.31 119.716C59.895 123.719 59.611 127.732 59.348 131.746C59.333 131.969 59.318 132.193 59.304 132.416C59.172 134.437 59.044 136.459 58.907 138.48C58.89 138.722 58.872 138.964 58.855 139.207C58.834 139.514 58.811 139.82 58.79 140.126C58.683 141.612 58.572 143.097 58.446 144.581C54.429 145.219 50.437 145.966 46.567 147.277C45.879 147.51 46.04 148.175 46.744 147.937C56.388 144.671 66.79 144.893 76.436 141.626C76.485 141.609 76.521 141.586 76.562 141.566C76.67 141.535 76.765 141.49 76.828 141.428C76.918 141.339 77.01 141.251 77.102 141.163C77.224 141.1 77.319 141.015 77.355 140.919C79.997 138.409 82.992 136.185 86.475 135.007C87.693 134.596 92.188 133.654 92.856 135.429C92.862 135.445 92.862 135.46 92.867 135.476C92.864 135.594 92.865 135.712 92.862 135.83C92.614 136.624 90.867 137.276 90.344 137.712C89.806 138.161 90.969 138.255 91.305 137.975C91.628 137.705 92.216 137.461 92.768 137.162C94.029 138.057 93.606 140.003 92.182 140.646C91.435 140.983 92.123 141.333 92.638 141.101C92.905 140.981 93.154 140.838 93.385 140.675C94.62 141.576 94.195 143.504 92.779 144.143C92.559 144.243 92.466 144.342 92.454 144.429C92.397 144.51 92.407 144.589 92.538 144.647C93.193 144.936 93.752 145.342 93.855 146.09C93.907 146.468 93.773 146.824 93.549 147.147C93.453 147.18 93.375 147.219 93.331 147.263C92.971 147.622 92.604 147.955 92.233 148.278C92.047 148.345 91.888 148.462 91.834 148.615C89.962 150.157 87.909 151.267 85.466 151.927C83.132 152.558 80.746 152.945 78.422 153.619C78.243 153.612 78.052 153.643 77.925 153.72C72.285 157.157 66.589 160.633 60.251 162.643C54.23 164.553 46.456 164.713 41.425 160.302ZM68.653 133.487C70.849 133.487 73.045 133.487 75.242 133.487C75.488 133.487 75.677 133.371 75.775 133.227C75.858 135.77 76.201 138.316 76.189 140.853C76.12 140.92 76.05 140.987 75.982 141.053C73.539 141.863 71.049 142.456 68.535 142.94C68.58 142.876 68.606 142.803 68.602 142.721C68.431 139.629 69.255 136.548 68.653 133.487ZM92.881 134.094C91.824 133.665 90.314 133.715 89.377 133.737C84.905 133.844 80.684 136.754 77.36 139.758C77.295 137.413 76.997 135.063 76.947 132.715C82.264 132.715 87.58 132.715 92.896 132.715C92.895 133.174 92.886 133.634 92.881 134.094ZM90.908 153.842C87.218 155.203 82.614 155.059 78.866 154.01C81.598 153.253 84.442 152.874 87.122 151.951C88.794 151.376 90.286 150.568 91.665 149.575C91.431 151.001 91.175 152.422 90.908 153.842ZM61.968 164.332C59.844 164.332 57.721 164.332 55.597 164.332C57.038 164.128 58.45 163.829 59.791 163.456C66.346 161.635 72.281 157.996 78.046 154.479C82.166 155.598 86.965 155.539 91.041 154.151C91.342 154.311 92.022 154.127 92.091 153.756C92.411 152.053 92.725 150.35 92.991 148.638C93.884 148.034 94.82 147.266 95.019 146.164C95.176 145.295 94.532 144.663 93.83 144.272C94.522 143.828 95.048 143.206 95.265 142.369C95.528 141.351 94.982 140.456 94.111 139.989C94.364 139.668 94.557 139.299 94.667 138.872C94.918 137.904 94.438 137.046 93.642 136.562C93.942 136.274 94.127 135.93 94.075 135.499C94.069 135.447 94.053 135.402 94.043 135.353C94.055 134.741 94.059 134.13 94.063 133.518C95.083 133.518 96.102 133.518 97.122 133.518H97.124C97.272 141.103 99.957 150.235 95.643 157.076C93.426 160.592 88.497 161.215 84.704 161.411C80.392 161.635 75.573 160.981 71.901 158.582C71.5 158.32 70.45 158.875 70.988 159.227C74.607 161.591 79.254 162.308 83.51 162.237C87.415 162.171 91.885 161.621 95.065 159.145C98.444 156.514 99.025 151.382 99.112 147.456C99.221 142.626 98.338 137.842 98.301 133.019C98.298 132.677 97.891 132.607 97.554 132.705C97.473 132.655 97.361 132.625 97.216 132.625C96.168 132.625 95.121 132.625 94.074 132.625C94.074 132.501 94.078 132.377 94.078 132.253C94.078 132.212 94.069 132.177 94.055 132.146C94.07 132.02 93.977 131.923 93.7 131.923C87.985 131.923 82.271 131.923 76.557 131.923C76.528 131.923 76.499 131.927 76.47 131.931C76.139 131.937 75.754 132.119 75.755 132.378C75.756 132.514 75.762 132.651 75.764 132.787C75.686 132.709 75.552 132.657 75.352 132.657C73.102 132.657 70.852 132.657 68.601 132.657C68.37 132.657 68.191 132.76 68.088 132.892C67.734 132.914 67.341 133.158 67.419 133.497C68.121 136.572 67.238 139.694 67.41 142.803C67.418 142.949 67.49 143.05 67.594 143.115C64.955 143.597 62.295 143.982 59.641 144.392C60.311 136.487 60.628 128.557 61.394 120.659C61.8 116.47 62.308 112.282 63.129 108.152C63.686 105.351 64.31 102.041 66.127 99.737C66.232 99.605 66.252 99.495 66.222 99.407C67.245 99.05 68.284 98.743 69.334 98.496C66.964 106.257 65.569 114.25 65.055 122.344C65.007 122.466 65.032 122.597 65.186 122.716C66.222 123.513 67.965 123.607 69.2 123.785C72.011 124.192 74.865 124.338 77.701 124.432C79.669 124.497 81.657 124.53 83.649 124.505C84.437 125.532 85.202 126.51 85.494 127.382C85.588 127.661 86.751 127.316 86.667 127.068C86.324 126.042 85.731 125.243 85.09 124.476C86.024 124.45 86.957 124.407 87.889 124.349C88.382 125.43 89.13 126.482 89.922 127.471C90.222 127.847 91.347 127.409 91.002 126.978C90.351 126.165 89.625 125.252 89.103 124.263C91.773 124.051 94.424 123.686 97.016 123.098C97.319 123.073 97.629 122.894 97.628 122.618C97.619 118.439 97.413 114.26 97.157 110.089C96.967 106.974 96.885 103.731 96.297 100.646C97.733 101.127 99.17 101.647 100.582 102.222C100.625 105.124 101.111 108.064 101.428 110.94C102.086 116.893 102.771 122.842 103.426 128.796C103.89 133.02 104.403 137.268 104.871 141.525C104.79 141.594 104.775 141.654 104.885 141.685C104.885 141.685 104.887 141.685 104.889 141.685C105.716 149.223 106.4 156.794 106.418 164.328C106.418 164.33 106.419 164.331 106.419 164.331C91.602 164.332 76.785 164.332 61.968 164.332ZM212.785 152.892C212.785 143.51 212.785 134.128 212.785 124.746C213.678 124.698 214.57 124.64 215.46 124.563C215.172 124.632 214.89 124.794 214.89 125.012C214.89 134.305 214.89 143.598 214.89 152.892C214.188 152.892 213.486 152.892 212.785 152.892ZM168.117 124.846C168.53 124.863 168.941 124.878 169.353 124.893C169.584 124.901 169.816 124.905 170.046 124.914C170.046 134.216 170.046 143.518 170.046 152.821C170.046 152.846 170.051 152.869 170.055 152.892C169.402 152.892 168.749 152.892 168.096 152.892C168.096 143.544 168.096 134.195 168.096 124.847V124.846C168.104 124.846 168.111 124.846 168.117 124.846ZM208.552 152.892C208.075 152.892 207.599 152.892 207.122 152.892C206.743 152.892 206.364 152.892 205.984 152.892C205.553 152.892 205.121 152.892 204.69 152.892C204.715 152.843 204.732 152.79 204.732 152.732C204.732 147.068 204.732 141.404 204.732 135.74C204.732 135.621 204.686 135.532 204.614 135.469C204.669 135.159 204.707 134.849 204.719 134.542C204.972 134.541 205.224 134.54 205.476 134.538C205.566 134.538 205.763 134.51 205.942 134.451C206.123 134.392 206.286 134.302 206.303 134.177C206.529 132.52 206.802 130.813 206.982 129.105C207.128 127.714 207.208 126.322 207.143 124.956C207.78 124.937 208.419 124.925 209.057 124.903C209.941 124.873 210.825 124.839 211.71 124.799C211.65 124.862 211.612 124.932 211.612 125.011C211.612 134.304 211.612 143.597 211.612 152.891C210.988 152.891 210.364 152.891 209.741 152.891C209.344 152.892 208.948 152.892 208.552 152.892ZM179.092 134.549C179.107 135.228 178.949 135.941 178.795 136.616C178.748 136.637 178.704 136.66 178.665 136.689C178.071 136.691 177.478 136.693 176.885 136.695C176.744 136.521 176.437 136.496 176.18 136.58C175.981 135.927 175.877 135.247 175.865 134.565C176.941 134.559 178.016 134.554 179.092 134.549ZM180.735 134.005C180.572 134.006 180.408 134.007 180.244 134.007C180.165 133.894 179.803 133.913 179.504 134.011C178.242 134.018 176.98 134.024 175.717 134.031C175.638 134.017 175.534 134.018 175.421 134.032C175.246 134.033 175.071 134.034 174.896 134.035C174.702 134.036 174.509 134.037 174.315 134.038C174.315 134.028 174.315 134.018 174.315 134.008C174.315 133.899 174.276 133.816 174.215 133.755C174.199 133.544 174.073 133.243 174.019 132.93C173.825 131.826 173.681 130.713 173.582 129.597C176.068 129.597 178.555 129.597 181.042 129.597C181.125 129.597 181.231 129.569 181.338 129.526C181.175 131.033 180.941 132.535 180.735 134.005ZM174.315 152.733C174.315 146.679 174.315 140.626 174.315 134.573C174.439 134.572 174.564 134.571 174.689 134.571C174.669 135.435 174.791 136.304 175.072 137.123C175.115 137.247 175.316 137.235 175.414 137.235C175.534 137.235 175.654 137.234 175.774 137.234C175.774 142.429 175.774 147.625 175.774 152.821C175.774 152.846 175.78 152.869 175.783 152.892C175.28 152.892 174.776 152.892 174.273 152.892C174.298 152.843 174.315 152.79 174.315 152.733ZM176.963 152.733C176.963 147.565 176.963 142.398 176.963 137.23C177.469 137.229 177.975 137.227 178.48 137.226C178.48 142.424 178.48 147.622 178.48 152.821C178.48 152.846 178.486 152.869 178.489 152.892C177.966 152.892 177.444 152.892 176.921 152.892C176.947 152.843 176.963 152.79 176.963 152.733ZM179.67 152.733C179.67 147.509 179.67 142.286 179.67 137.063C179.766 137.01 179.842 136.945 179.86 136.863C180.022 136.122 180.232 135.32 180.264 134.543C180.517 134.542 180.769 134.54 181.021 134.539C181.039 134.539 181.065 134.537 181.091 134.534C181.091 140.63 181.091 146.725 181.091 152.821C181.091 152.846 181.097 152.869 181.1 152.892C180.609 152.892 180.118 152.892 179.628 152.892C179.653 152.843 179.67 152.79 179.67 152.733ZM182.158 132C182.483 129.731 182.778 127.41 182.693 125.154C183.09 125.157 183.489 125.16 183.886 125.162C183.828 125.23 183.791 125.31 183.791 125.4C183.791 134.564 183.791 143.728 183.791 152.892C183.273 152.892 182.756 152.892 182.238 152.892C182.264 152.843 182.28 152.79 182.28 152.732C182.28 145.913 182.28 139.094 182.28 132.275C182.28 132.153 182.233 132.064 182.158 132ZM184.95 125.166C185.583 125.169 186.215 125.172 186.848 125.173C186.795 125.239 186.761 125.315 186.761 125.4C186.761 134.564 186.761 143.728 186.761 152.892C186.168 152.892 185.574 152.892 184.98 152.892C184.98 143.698 184.98 134.505 184.98 125.312C184.98 125.256 184.967 125.209 184.95 125.166ZM187.925 125.177C187.988 125.178 188.051 125.178 188.115 125.178C188.682 125.179 189.249 125.176 189.816 125.176C189.765 125.241 189.731 125.316 189.731 125.401C189.731 134.565 189.731 143.728 189.731 152.892C189.138 152.892 188.544 152.892 187.95 152.892C187.95 143.699 187.95 134.506 187.95 125.312C187.95 125.261 187.94 125.218 187.925 125.177ZM190.894 125.176C191.525 125.175 192.157 125.176 192.788 125.174C192.736 125.239 192.701 125.315 192.701 125.401C192.701 134.565 192.701 143.728 192.701 152.892C192.108 152.892 191.514 152.892 190.921 152.892C190.921 143.699 190.921 134.506 190.921 125.312C190.92 125.26 190.909 125.216 190.894 125.176ZM193.861 125.169C194.498 125.166 195.136 125.16 195.772 125.155C195.711 125.224 195.672 125.307 195.672 125.4C195.672 134.564 195.672 143.728 195.672 152.892C195.078 152.892 194.484 152.892 193.891 152.892C193.891 143.698 193.891 134.505 193.891 125.312C193.89 125.258 193.879 125.212 193.861 125.169ZM198.386 134.039C198.448 134.039 198.497 134.03 198.537 134.015C198.528 134.023 198.52 134.031 198.511 134.038C198.469 134.039 198.427 134.039 198.386 134.039ZM203.546 134.549C203.562 135.252 203.392 135.993 203.233 136.689C202.378 136.691 201.523 136.694 200.668 136.697C200.445 136.009 200.332 135.288 200.32 134.565C201.395 134.559 202.47 134.554 203.546 134.549ZM205.19 134.005C205.027 134.006 204.863 134.007 204.699 134.007C204.62 133.894 204.258 133.913 203.959 134.011C202.697 134.018 201.434 134.024 200.172 134.031C200.092 134.017 199.988 134.018 199.875 134.032C199.745 134.033 199.615 134.033 199.485 134.034C199.321 133.799 198.87 133.81 198.591 133.981C198.792 133.831 198.554 133.392 198.473 132.929C198.289 131.879 198.149 130.822 198.05 129.762C200.623 129.762 203.196 129.762 205.769 129.762C205.607 131.189 205.384 132.612 205.19 134.005ZM196.839 125.186C196.834 125.173 196.828 125.16 196.822 125.147C196.847 125.146 196.872 125.146 196.896 125.146C196.876 125.159 196.856 125.172 196.839 125.186ZM196.86 130.013C196.994 131.51 197.216 133 197.53 134.465C197.557 134.589 197.787 134.577 197.872 134.577C198.034 134.576 198.197 134.575 198.359 134.574C198.359 140.656 198.359 146.738 198.359 152.82C198.359 152.846 198.364 152.868 198.367 152.891C197.865 152.891 197.363 152.891 196.86 152.891C196.86 145.265 196.86 137.639 196.86 130.013ZM199.548 152.733C199.548 147.538 199.548 142.344 199.548 137.149C199.611 137.24 199.779 137.235 199.869 137.235C200.285 137.234 200.702 137.233 201.118 137.231C201.085 137.286 201.065 137.347 201.065 137.414C201.065 142.55 201.065 147.685 201.065 152.821C201.065 152.846 201.07 152.869 201.074 152.892C200.551 152.892 200.029 152.892 199.506 152.892C199.532 152.843 199.548 152.79 199.548 152.733ZM202.242 137.228C202.657 137.226 203.072 137.225 203.487 137.224C203.502 137.224 203.523 137.222 203.542 137.221C203.542 142.421 203.542 147.621 203.542 152.821C203.542 152.846 203.547 152.869 203.551 152.892C203.104 152.892 202.658 152.892 202.212 152.892C202.238 152.843 202.254 152.79 202.254 152.732C202.254 147.597 202.254 142.461 202.254 137.326C202.255 137.291 202.25 137.258 202.242 137.228ZM205.834 129.115C203.221 129.115 200.608 129.115 197.995 129.115C197.894 127.793 197.86 126.465 197.897 125.139C200.6 125.111 203.302 125.059 206.004 124.988C205.978 125.026 205.962 125.067 205.965 125.11C206.038 126.428 205.967 127.771 205.834 129.115ZM181.51 125.142C181.58 126.417 181.515 127.713 181.39 129.011C178.778 129.011 176.166 129.011 173.554 129.011C173.547 129.011 173.538 129.013 173.531 129.014C173.434 127.7 173.404 126.382 173.443 125.066C173.444 125.045 173.433 125.028 173.418 125.013C176.115 125.079 178.813 125.119 181.51 125.142ZM172.799 125.003C172.529 125.07 172.275 125.202 172.269 125.379C172.178 128.414 172.437 131.492 173.075 134.465C173.082 134.495 173.101 134.516 173.126 134.531C173.126 140.628 173.126 146.724 173.126 152.821C173.126 152.846 173.131 152.869 173.134 152.892C172.487 152.892 171.84 152.892 171.193 152.892C171.219 152.843 171.235 152.791 171.235 152.733C171.235 143.472 171.235 134.21 171.235 124.949C171.757 124.965 172.278 124.981 172.8 124.995C172.81 124.995 172.821 124.995 172.831 124.996C172.821 124.998 172.81 125.001 172.799 125.003ZM163.342 124.035C161.86 123.865 161.733 123.515 161.593 121.953C161.281 118.486 161.571 114.93 161.678 111.458C161.729 109.785 161.775 108.112 161.77 106.438C161.765 104.722 161.344 102.97 162.186 101.385C163.535 98.847 167.247 98.857 169.753 98.714C172.724 98.545 175.702 98.483 178.677 98.428C185.931 98.294 193.19 98.302 200.444 98.436C203.326 98.489 206.209 98.564 209.088 98.721C211.416 98.847 213.621 98.983 215.713 100.149C218.124 101.492 217.784 103.762 217.722 106.075C217.663 108.282 217.766 110.497 217.834 112.703C217.908 115.091 217.99 117.481 217.977 119.872C217.972 120.919 218.199 122.875 217.587 123.877C217.493 123.848 217.003 124.02 216.737 124.05C215.919 124.144 215.096 124.198 214.275 124.25C211.819 124.405 209.357 124.475 206.897 124.54C200.343 124.71 193.785 124.744 187.23 124.723C185.678 124.717 184.127 124.71 182.575 124.697C182.484 124.67 182.345 124.67 182.197 124.692C178.503 124.66 174.809 124.591 171.118 124.469C170.938 124.31 170.588 124.319 170.336 124.443C169.871 124.427 169.404 124.416 168.94 124.398C167.074 124.322 165.199 124.248 163.342 124.035ZM165.061 124.695C165.714 124.737 166.368 124.771 167.021 124.8C166.961 124.862 166.923 124.933 166.923 125.012C166.923 134.305 166.923 143.598 166.923 152.892C166.303 152.892 165.682 152.892 165.062 152.892C165.062 143.494 165.062 134.096 165.062 124.698L165.061 124.695ZM155.639 164.332C155.639 160.733 155.639 157.135 155.639 153.536C158.464 153.536 161.29 153.536 164.115 153.536C164.174 153.543 164.242 153.543 164.312 153.536C165.258 153.536 166.204 153.536 167.15 153.536C167.21 153.543 167.276 153.543 167.347 153.536C172.886 153.536 178.425 153.536 183.964 153.536C184.145 153.645 184.432 153.634 184.656 153.536C185.415 153.536 186.175 153.536 186.934 153.536C187.115 153.645 187.402 153.634 187.626 153.536C188.385 153.536 189.145 153.536 189.904 153.536C190.085 153.645 190.372 153.634 190.596 153.536C191.355 153.536 192.115 153.536 192.874 153.536C193.055 153.645 193.342 153.634 193.566 153.536C194.325 153.536 195.085 153.536 195.845 153.536C196.026 153.645 196.312 153.634 196.536 153.536C200.599 153.536 204.662 153.536 208.725 153.536C208.906 153.645 209.192 153.634 209.416 153.536C210.223 153.536 211.031 153.536 211.838 153.536C211.897 153.543 211.964 153.543 212.035 153.536C213.062 153.536 214.089 153.536 215.116 153.536C215.176 153.543 215.243 153.543 215.313 153.536C217.372 153.536 219.43 153.536 221.488 153.536C221.488 157.134 221.488 160.733 221.488 164.332C199.539 164.332 177.589 164.332 155.639 164.332ZM87.231 70.497C87.465 71.211 87.646 71.94 87.881 72.654C88.015 73.066 86.848 73.396 86.707 72.968C86.473 72.254 86.292 71.525 86.058 70.811C85.923 70.399 87.091 70.069 87.231 70.497ZM97.574 71.074C97.828 71.479 96.686 71.853 96.483 71.529C96.085 70.894 96.01 70.253 96.01 69.518C96.009 69.068 97.183 68.848 97.183 69.204C97.184 69.859 97.216 70.503 97.574 71.074ZM86.769 68.995C85.836 68.665 84.907 68.806 84.001 69.15C83.802 69.226 83.418 69.336 83.232 69.167C83.046 68.998 83.45 68.789 83.559 68.748C84.889 68.243 86.34 67.983 87.715 68.471C88.155 68.627 87.088 69.109 86.769 68.995ZM129.564 95.287C129.545 95.456 129.677 95.587 130.038 95.532C130.046 95.531 130.054 95.529 130.062 95.528C132.003 96.407 134.263 96.747 136.433 96.491C142.317 95.797 147.205 91.387 149.969 86.385C151.645 83.353 152.584 79.726 151.904 76.283C151.265 73.043 148.873 70.864 145.965 69.657C145.969 69.647 145.967 69.636 145.956 69.631C141.525 67.25 136.331 69.888 132.869 72.792C128.541 76.422 124.811 82.173 124.87 87.972C124.906 91.408 126.871 93.896 129.564 95.287ZM133.061 95.852C132.384 95.708 131.764 95.511 131.195 95.27C135.546 93.962 137.353 89.383 138.727 85.304C140.268 80.731 141.666 72.468 147.698 71.95C147.782 71.943 147.859 71.922 147.93 71.892C156.611 79.498 144.854 98.368 133.061 95.852ZM147.143 71.276C142.41 72.08 140.433 76.76 139.008 80.925C137.434 85.525 136.093 93.853 130.182 94.765C129.461 94.342 128.848 93.833 128.333 93.259C132.936 91.854 135.289 88.286 136.864 83.835C138.637 78.824 139.781 72.557 145.118 70.156C145.873 70.479 146.547 70.855 147.143 71.276ZM127.301 81.714C129.492 76.315 134.947 69.679 141.203 69.188C142.105 69.117 142.998 69.27 143.839 69.576C143.796 69.624 143.798 69.667 143.876 69.691C144.134 69.773 144.383 69.862 144.625 69.954C140.358 71.872 138.443 75.773 137.003 80.095C135.304 85.195 133.838 91.235 128.082 92.966C125.722 90.05 125.721 85.606 127.301 81.714ZM175.391 118.482C183.83 119.553 185.097 107.614 177.455 105.482C177.435 105.476 177.413 105.474 177.391 105.472C177.368 105.467 177.348 105.462 177.322 105.458C173.556 104.99 170.247 107.083 169.378 110.821C168.432 114.888 171.556 117.994 175.391 118.482ZM176.815 106.223C182.628 107.907 183.429 117.92 176.26 117.744C168.266 117.548 168.956 105.33 176.815 106.223ZM175.477 114.608C176.958 114.772 178.419 114.116 178.798 112.594C179.167 111.112 178.142 109.708 176.744 109.308C176.714 109.3 176.681 109.296 176.647 109.294C176.634 109.292 176.624 109.289 176.611 109.287C175.064 109.103 173.619 109.899 173.16 111.415C172.678 113.006 173.918 114.434 175.477 114.608ZM176.081 110.02C177.033 110.31 177.572 111.115 177.671 112.082C177.773 113.078 177.148 113.942 176.119 113.891C173.694 113.772 173.689 109.837 176.081 110.02ZM202.846 118.482C211.285 119.553 212.551 107.614 204.91 105.482C204.89 105.476 204.868 105.474 204.846 105.472C204.822 105.467 204.803 105.462 204.776 105.458C201.01 104.99 197.702 107.083 196.833 110.821C195.886 114.888 199.01 117.994 202.846 118.482ZM204.269 106.223C210.083 107.907 210.883 117.92 203.714 117.744C195.72 117.548 196.41 105.33 204.269 106.223ZM202.931 114.608C204.413 114.772 205.874 114.116 206.253 112.594C206.622 111.112 205.596 109.708 204.198 109.308C204.169 109.3 204.136 109.296 204.102 109.294C204.089 109.292 204.079 109.289 204.065 109.287C202.518 109.103 201.073 109.899 200.615 111.415C200.133 113.006 201.372 114.434 202.931 114.608ZM203.535 110.02C204.488 110.31 205.027 111.115 205.125 112.082C205.227 113.078 204.603 113.942 203.573 113.891C201.148 113.772 201.144 109.837 203.535 110.02ZM157.991 161.983H218.972V155.826H157.991V161.983ZM158.801 156.634H218.162V161.176H158.801V156.634Z" fill="#2A2A2B"/>
<defs>
<linearGradient id="paint0_linear_1_81" x1="208.389" y1="-18.8621" x2="219.342" y2="53.504" gradientUnits="userSpaceOnUse">
<stop stop-color="#FAC7FF"/>
<stop offset="1" stop-color="#FFD2BE"/>
</linearGradient>
<linearGradient id="paint1_linear_1_81" x1="298.764" y1="138.553" x2="13.7022" y2="170.621" gradientUnits="userSpaceOnUse">
<stop stop-color="#FAC7FF"/>
<stop offset="1" stop-color="#FFD2BE"/>
</linearGradient>
</defs>
</svg>
